<svg width="175" height="173" viewBox="0 0 175 173" fill="none" xmlns="http://www.w3.org/2000/svg">
<path d="M145.1 113.005C138.27 103.645 129.85 95.4252 120.35 88.8852L100.32 75.1152L117.51 92.3052C138.85 113.645 147.4 134.905 143.67 157.315C143.42 158.565 143.08 159.835 142.69 161.095C136.56 165.605 129.86 169.375 122.72 172.285C117.78 168.965 113.24 165.135 108.86 161.395C98.65 152.665 88.09 143.645 72.45 142.075C70.84 141.925 69.22 141.855 67.62 141.855C66.02 141.855 64.4 141.925 62.78 142.075C71.58 135.085 78.42 126.425 83.18 116.225L95.62 89.5552L79.3 114.035C71.59 125.595 58.72 131.935 46.27 138.055C44.97 138.695 43.68 139.325 42.41 139.965C36.56 141.615 30.52 142.495 24.93 142.495C21.23 142.495 16.89 142.095 12.55 140.845C7.61999 134.075 3.57999 126.625 0.609985 118.645C13.89 105.355 27.49 91.5552 29.81 70.9652C30.42 67.5752 30.71 64.1552 30.68 60.7352C37.23 69.6852 45.1 77.4952 53.77 83.6252L75.08 98.6652L56.64 80.2252C37.33 60.9252 28.53 39.0552 30.46 15.2052C30.7 14.2752 31 13.3052 31.37 12.3152C37.55 7.6052 44.32 3.6352 51.57 0.575195C55.21 3.4352 58.62 6.3652 61.92 9.2252C73.5 19.2552 84.43 28.7252 101.69 30.4452H101.8L101.91 30.4552C105.17 30.4552 108.39 30.2952 111.56 29.9852C103.02 36.7152 95.8 44.8452 90.4 53.8552L82.9 66.3552L93.8 56.6652C115.44 37.4252 134.24 28.0752 151.26 28.0752C154.57 28.0752 157.83 28.4552 161.01 29.1752C166.47 36.1852 170.94 43.9952 174.23 52.3952C153.69 71.1652 143.9 91.5052 145.11 112.985L145.1 113.005Z" fill="url(#paint0_linear_30_488)"/>
<path d="M51.8785 0.181641L53.2369 1.26074C56.3817 3.7834 59.3599 6.34494 62.2477 8.84766L64.4137 10.7197C75.2109 20.0224 85.7169 28.3449 101.721 29.9453H101.823L101.845 29.9473L101.931 29.9541C105.168 29.9534 108.364 29.7951 111.511 29.4873L113.21 29.3213L111.87 30.3779C103.641 36.8628 96.6464 44.6528 91.3375 53.2754L90.8287 54.1123L85.0094 63.8105L93.4674 56.292L94.4821 55.3955C115.731 36.7299 134.326 27.5752 151.26 27.5752C154.399 27.5752 157.493 27.9128 160.516 28.5547L161.121 28.6875L161.295 28.7266L161.405 28.8682C166.894 35.9157 171.388 43.7678 174.696 52.2129L174.821 52.5322L174.567 52.7646C154.103 71.4656 144.41 91.6693 145.609 112.957L145.617 113.09L145.18 113.963L144.696 113.3C137.899 103.985 129.519 95.8045 120.066 89.2969L104.523 78.6113L117.864 91.9512C139.277 113.364 147.927 134.779 144.163 157.397L144.162 157.405L144.16 157.413C143.906 158.684 143.561 159.971 143.168 161.243L143.119 161.4L142.986 161.498C136.823 166.032 130.087 169.822 122.909 172.748L122.662 172.849L122.441 172.7C117.474 169.362 112.914 165.514 108.536 161.775C98.3141 153.035 87.8653 144.126 72.4039 142.572C70.8103 142.424 69.2053 142.355 67.6198 142.355C66.0343 142.355 64.4295 142.425 62.8258 142.573L61.1549 142.728L62.4694 141.684C71.2086 134.742 78 126.143 82.7272 116.014L92.3815 95.3125L79.7164 114.312C72.4062 125.273 60.5203 131.577 48.8258 137.354L46.4908 138.504C45.1889 139.145 43.9026 139.774 42.6354 140.412L42.5924 140.434L42.5455 140.446C36.6558 142.107 30.5703 142.995 24.9303 142.995C21.1965 142.995 16.8077 142.591 12.4117 141.325L12.2467 141.278L12.1461 141.14C7.49954 134.759 3.63852 127.777 0.713501 120.317L0.141235 118.819L0.0299072 118.519L0.25647 118.292L2.74866 115.791C15.1928 103.248 27.1591 90.0263 29.3131 70.9092L29.3151 70.8926L29.318 70.877C29.9225 67.5175 30.21 64.128 30.1803 60.7393L30.1666 59.1865L31.0836 60.4395C37.6032 69.3479 45.4347 77.1196 54.0582 83.2168L70.5953 94.8877L56.2867 80.5791C36.8893 61.1917 28.018 39.1826 29.9615 15.165L29.9655 15.1221L29.9762 15.0801C30.2203 14.1342 30.5256 13.1477 30.902 12.1406L30.9518 12.0049L31.067 11.918C37.2793 7.18337 44.0856 3.19116 51.3756 0.114258L51.6471 0L51.8785 0.181641ZM51.4928 1.15234C44.4308 4.16031 37.8285 8.03719 31.7897 12.625C31.4545 13.536 31.1777 14.4284 30.9547 15.2871C29.0519 38.9533 37.7826 60.6698 56.9938 79.8711L75.4332 98.3115L74.7916 99.0732L53.4821 84.0342L53.4811 84.0332C45.1561 78.1471 37.5693 70.7222 31.1715 62.2334C31.1174 65.1769 30.8294 68.1171 30.3053 71.0352C27.9719 91.6963 14.3803 105.568 1.19202 118.769C4.11424 126.537 8.05633 133.797 12.8522 140.409C17.0818 141.606 21.3106 141.995 24.9303 141.995C30.4557 141.995 36.4331 141.127 42.2291 139.496C43.4876 138.862 44.7665 138.238 46.0494 137.606L48.3903 136.453C60.097 130.667 71.7384 124.472 78.8844 113.758L95.2037 89.2783L96.0729 89.7666L83.6334 116.437C79.0667 126.222 72.5948 134.6 64.3297 141.457C65.4318 141.39 66.5305 141.355 67.6198 141.355C68.8305 141.355 70.0533 141.395 71.275 141.479L72.4967 141.577L72.4996 141.578L73.2379 141.657C88.6496 143.45 99.1463 152.432 109.184 161.015L110.835 162.42C114.635 165.644 118.563 168.866 122.777 171.719C129.734 168.86 136.269 165.18 142.259 160.789C142.625 159.593 142.944 158.394 143.179 157.217C146.868 135.022 138.418 113.921 117.157 92.6592L99.9664 75.4688L100.603 74.7031L120.633 88.4736L121.525 89.0947C130.27 95.2553 138.076 102.838 144.543 111.417C143.887 90.4245 153.701 70.571 173.638 52.2598C170.4 44.082 166.036 36.4713 160.724 29.624C157.635 28.9375 154.471 28.5752 151.26 28.5752C134.687 28.5752 116.323 37.5408 95.1432 56.1455L94.1324 57.0391L80.7897 68.9004L89.9713 53.5977C95.1297 44.9909 101.937 37.1862 109.962 30.6279C107.309 30.8428 104.623 30.9551 101.91 30.9551H101.887L101.865 30.9531L101.777 30.9453H101.665L101.64 30.9424C85.2928 29.3133 74.5672 20.7915 63.7574 11.4756L61.5924 9.60352C58.3632 6.80491 55.0354 3.94618 51.4928 1.15234Z" fill="url(#paint1_linear_30_488)"/>
<defs>
<linearGradient id="paint0_linear_30_488" x1="296.03" y1="107.4" x2="1021.94" y2="107.4" gradientUnits="userSpaceOnUse">
<stop stop-color="#A855F7"/>
<stop offset="0.5" stop-color="#6366F1"/>
</linearGradient>
<linearGradient id="paint1_linear_30_488" x1="296.03" y1="107.4" x2="1021.94" y2="107.4" gradientUnits="userSpaceOnUse">
<stop stop-color="#A855F7"/>
<stop offset="0.5" stop-color="#6366F1"/>
</linearGradient>
</defs>
</svg>
