<svg width="1022" height="180" viewBox="0 0 1022 180" fill="none" xmlns="http://www.w3.org/2000/svg">
<path d="M145.1 113.005C138.27 103.645 129.85 95.4252 120.35 88.8852L100.32 75.1152L117.51 92.3052C138.85 113.645 147.4 134.905 143.67 157.315C143.42 158.565 143.08 159.835 142.69 161.095C136.56 165.605 129.86 169.375 122.72 172.285C117.78 168.965 113.24 165.135 108.86 161.395C98.65 152.665 88.09 143.645 72.45 142.075C70.84 141.925 69.22 141.855 67.62 141.855C66.02 141.855 64.4 141.925 62.78 142.075C71.58 135.085 78.42 126.425 83.18 116.225L95.62 89.5552L79.3 114.035C71.59 125.595 58.72 131.935 46.27 138.055C44.97 138.695 43.68 139.325 42.41 139.965C36.56 141.615 30.52 142.495 24.93 142.495C21.23 142.495 16.89 142.095 12.55 140.845C7.61999 134.075 3.57999 126.625 0.609985 118.645C13.89 105.355 27.49 91.5552 29.81 70.9652C30.42 67.5752 30.71 64.1552 30.68 60.7352C37.23 69.6852 45.1 77.4952 53.77 83.6252L75.08 98.6652L56.64 80.2252C37.33 60.9252 28.53 39.0552 30.46 15.2052C30.7 14.2752 31 13.3052 31.37 12.3152C37.55 7.6052 44.32 3.6352 51.57 0.575195C55.21 3.4352 58.62 6.3652 61.92 9.2252C73.5 19.2552 84.43 28.7252 101.69 30.4452H101.8L101.91 30.4552C105.17 30.4552 108.39 30.2952 111.56 29.9852C103.02 36.7152 95.8 44.8452 90.4 53.8552L82.9 66.3552L93.8 56.6652C115.44 37.4252 134.24 28.0752 151.26 28.0752C154.57 28.0752 157.83 28.4552 161.01 29.1752C166.47 36.1852 170.94 43.9952 174.23 52.3952C153.69 71.1652 143.9 91.5052 145.11 112.985L145.1 113.005Z" fill="#A855F7"/>
<path d="M51.8785 0.181641L53.2369 1.26074C56.3817 3.7834 59.3599 6.34494 62.2477 8.84766L64.4137 10.7197C75.2109 20.0224 85.7169 28.3449 101.721 29.9453H101.823L101.845 29.9473L101.931 29.9541C105.168 29.9534 108.364 29.7951 111.511 29.4873L113.21 29.3213L111.87 30.3779C103.641 36.8628 96.6464 44.6528 91.3375 53.2754L90.8287 54.1123L85.0094 63.8105L93.4674 56.292L94.4821 55.3955C115.731 36.7299 134.326 27.5752 151.26 27.5752C154.399 27.5752 157.493 27.9128 160.516 28.5547L161.121 28.6875L161.295 28.7266L161.405 28.8682C166.894 35.9157 171.388 43.7678 174.696 52.2129L174.821 52.5322L174.567 52.7646C154.103 71.4656 144.41 91.6693 145.609 112.957L145.617 113.09L145.18 113.963L144.696 113.3C137.899 103.985 129.519 95.8045 120.066 89.2969L104.523 78.6113L117.864 91.9512C139.277 113.364 147.927 134.779 144.163 157.397L144.162 157.405L144.16 157.413C143.906 158.684 143.561 159.971 143.168 161.243L143.119 161.4L142.986 161.498C136.823 166.032 130.087 169.822 122.909 172.748L122.662 172.849L122.441 172.7C117.474 169.362 112.914 165.514 108.536 161.775C98.3141 153.035 87.8653 144.126 72.4039 142.572C70.8103 142.424 69.2053 142.355 67.6198 142.355C66.0343 142.355 64.4295 142.425 62.8258 142.573L61.1549 142.728L62.4694 141.684C71.2086 134.742 78 126.143 82.7272 116.014L92.3815 95.3125L79.7164 114.312C72.4062 125.273 60.5203 131.577 48.8258 137.354L46.4908 138.504C45.1889 139.145 43.9026 139.774 42.6354 140.412L42.5924 140.434L42.5455 140.446C36.6558 142.107 30.5703 142.995 24.9303 142.995C21.1965 142.995 16.8077 142.591 12.4117 141.325L12.2467 141.278L12.1461 141.14C7.49954 134.759 3.63852 127.777 0.713501 120.317L0.141235 118.819L0.0299072 118.519L0.25647 118.292L2.74866 115.791C15.1928 103.248 27.1591 90.0263 29.3131 70.9092L29.3151 70.8926L29.318 70.877C29.9225 67.5175 30.21 64.128 30.1803 60.7393L30.1666 59.1865L31.0836 60.4395C37.6032 69.3479 45.4347 77.1196 54.0582 83.2168L70.5953 94.8877L56.2867 80.5791C36.8893 61.1917 28.018 39.1826 29.9615 15.165L29.9655 15.1221L29.9762 15.0801C30.2203 14.1342 30.5256 13.1477 30.902 12.1406L30.9518 12.0049L31.067 11.918C37.2793 7.18337 44.0856 3.19116 51.3756 0.114258L51.6471 0L51.8785 0.181641ZM51.4928 1.15234C44.4308 4.16031 37.8285 8.03719 31.7897 12.625C31.4545 13.536 31.1777 14.4284 30.9547 15.2871C29.0519 38.9533 37.7826 60.6698 56.9938 79.8711L75.4332 98.3115L74.7916 99.0732L53.4821 84.0342L53.4811 84.0332C45.1561 78.1471 37.5693 70.7222 31.1715 62.2334C31.1174 65.1769 30.8294 68.1171 30.3053 71.0352C27.9719 91.6963 14.3803 105.568 1.19202 118.769C4.11424 126.537 8.05633 133.797 12.8522 140.409C17.0818 141.606 21.3106 141.995 24.9303 141.995C30.4557 141.995 36.4331 141.127 42.2291 139.496C43.4876 138.862 44.7665 138.238 46.0494 137.606L48.3903 136.453C60.097 130.667 71.7384 124.472 78.8844 113.758L95.2037 89.2783L96.0729 89.7666L83.6334 116.437C79.0667 126.222 72.5948 134.6 64.3297 141.457C65.4318 141.39 66.5305 141.355 67.6198 141.355C68.8305 141.355 70.0533 141.395 71.275 141.479L72.4967 141.577L72.4996 141.578L73.2379 141.657C88.6496 143.45 99.1463 152.432 109.184 161.015L110.835 162.42C114.635 165.644 118.563 168.866 122.777 171.719C129.734 168.86 136.269 165.18 142.259 160.789C142.625 159.593 142.944 158.394 143.179 157.217C146.868 135.022 138.418 113.921 117.157 92.6592L99.9664 75.4688L100.603 74.7031L120.633 88.4736L121.525 89.0947C130.27 95.2553 138.076 102.838 144.543 111.417C143.887 90.4245 153.701 70.571 173.638 52.2598C170.4 44.082 166.036 36.4713 160.724 29.624C157.635 28.9375 154.471 28.5752 151.26 28.5752C134.687 28.5752 116.323 37.5408 95.1432 56.1455L94.1324 57.0391L80.7897 68.9004L89.9713 53.5977C95.1297 44.9909 101.937 37.1862 109.962 30.6279C107.309 30.8428 104.623 30.9551 101.91 30.9551H101.887L101.865 30.9531L101.777 30.9453H101.665L101.64 30.9424C85.2928 29.3133 74.5672 20.7915 63.7574 11.4756L61.5924 9.60352C58.3632 6.80491 55.0354 3.94618 51.4928 1.15234Z" fill="url(#paint0_linear_32_490)"/>
<path d="M336.28 82.3252V116.135C336.28 119.435 337.93 120.915 341.39 120.915H354.42C356.73 120.915 357.88 122.065 357.88 124.215V141.695C357.88 143.835 356.73 144.995 354.42 144.995H331C313.85 144.995 306.26 137.905 306.26 121.405V82.3152H299.99C297.85 82.3152 296.53 81.1652 296.53 79.0152V61.5352C296.53 59.3952 297.85 58.2352 299.99 58.2352H306.26V39.4352C306.26 37.2952 307.58 36.1352 309.72 36.1352H332.81C335.12 36.1352 336.27 37.2852 336.27 39.4352V58.2352H354.41C356.72 58.2352 357.87 59.3852 357.87 61.5352V79.0152C357.87 81.1552 356.72 82.3152 354.41 82.3152H336.27L336.28 82.3252ZM394.83 145.005C377.68 145.005 370.25 137.915 370.25 121.415V81.8252C370.25 65.3352 377.67 58.2352 394.83 58.2352H440.52C456.85 58.2352 463.78 64.8352 463.78 80.5052V105.245C463.78 107.385 462.63 108.545 460.32 108.545H400.28V112.665C400.28 119.925 401.6 121.245 410.34 121.245H431.12C433.43 121.245 434.58 120.255 434.58 117.945V117.285C434.58 115.145 435.73 113.985 438.04 113.985H460.31C462.62 113.985 463.77 115.135 463.77 117.285V122.725C463.77 138.395 456.84 144.995 440.51 144.995H394.82L394.83 145.005ZM400.28 94.6952H434.09V86.2852C434.09 83.4852 432.44 81.9952 429.47 81.9952H410.34C401.6 81.9952 400.28 83.3152 400.28 90.5752V94.6952ZM538 90.9052C538 83.6452 536.68 82.3252 527.94 82.3252H523.49C514.91 82.3252 511.45 85.9552 511.45 93.0452V141.705C511.45 143.845 510.3 145.005 507.99 145.005H484.9C482.59 145.005 481.44 143.855 481.44 141.705V61.5452C481.44 59.4052 482.6 58.2452 484.9 58.2452H504.69C507 58.2452 508.15 59.3952 508.15 61.5452V74.9052C510.46 64.0152 518.05 58.2452 531.9 58.2452H540.97C555.15 58.2452 562.74 63.1952 564.89 74.0752C567.36 63.6852 574.95 58.2452 588.48 58.2452H599.86C617.01 58.2452 624.44 65.3352 624.44 81.8352V141.715C624.44 143.855 623.29 145.015 620.98 145.015H597.89C595.75 145.015 594.43 143.865 594.43 141.715V90.9152C594.43 83.6552 593.11 82.3352 584.37 82.3352H579.92C571.51 82.3352 568.04 85.9652 568.04 93.0552V141.715C568.04 143.855 566.72 145.015 564.58 145.015H541.49C539.18 145.015 538.03 143.865 538.03 141.715V90.9152L538 90.9052ZM736.6 81.8352V121.425C736.6 137.915 729.18 145.015 712.02 145.015H695.03C683.65 145.015 676.56 141.225 673.09 133.965V175.365C673.09 177.505 671.94 178.665 669.63 178.665H646.54C644.23 178.665 643.08 177.515 643.08 175.365V61.5452C643.08 59.4052 644.24 58.2452 646.54 58.2452H666.33C668.64 58.2452 669.79 59.3952 669.79 61.5452V74.9052C672.1 64.0152 679.69 58.2452 693.54 58.2452H712.01C729.16 58.2452 736.59 65.3352 736.59 81.8352H736.6ZM706.58 112.345V90.9052C706.58 83.6452 705.26 82.3252 696.52 82.3252H685.14C676.56 82.3252 673.1 85.9552 673.1 93.0452V110.195C673.1 117.285 676.56 120.915 685.14 120.915H696.52C705.26 120.915 706.58 119.595 706.58 112.335V112.345ZM776.67 145.005C759.51 145.005 752.09 137.915 752.09 121.415V81.8252C752.09 65.3352 759.51 58.2352 776.67 58.2352H822.36C838.69 58.2352 845.62 64.8352 845.62 80.5052V105.245C845.62 107.385 844.47 108.545 842.16 108.545H782.12V112.665C782.12 119.925 783.44 121.245 792.18 121.245H812.96C815.27 121.245 816.42 120.255 816.42 117.945V117.285C816.42 115.145 817.57 113.985 819.88 113.985H842.15C844.46 113.985 845.61 115.135 845.61 117.285V122.725C845.61 138.395 838.68 144.995 822.35 144.995H776.66L776.67 145.005ZM782.12 94.6952H815.93V86.2852C815.93 83.4852 814.28 81.9952 811.31 81.9952H792.18C783.44 81.9952 782.12 83.3152 782.12 90.5752V94.6952ZM889.99 89.9152C889.99 93.2152 891.47 94.6952 894.94 94.6952H929.58C945.91 94.6952 952.51 99.3152 952.51 116.635V123.065C952.51 138.735 945.91 145.005 929.58 145.005H881.25C864.92 145.005 858.32 138.735 858.32 123.065V117.295C858.32 115.155 859.64 113.995 861.78 113.995H884.21C886.35 113.995 887.67 115.145 887.67 117.295V117.955C887.67 120.265 888.66 121.255 891.13 121.255H917.36C920.82 121.255 922.47 119.775 922.47 116.475V114.165C922.47 110.865 920.82 108.555 917.36 108.555H882.72C866.55 108.555 859.96 103.935 859.96 86.6152V80.1852C859.96 64.5152 866.56 58.2452 882.72 58.2452H927.26C943.59 58.2452 950.19 64.5152 950.19 80.1852V85.9552C950.19 88.0952 949.04 89.2552 946.73 89.2552H924.3C922.16 89.2552 920.84 88.1052 920.84 85.9552V85.2952C920.84 82.9852 919.85 81.9952 917.38 81.9952H894.95C891.49 81.9952 890 83.4752 890 86.7752V89.9052L889.99 89.9152ZM999.84 82.3252V116.135C999.84 119.435 1001.49 120.915 1004.95 120.915H1017.98C1020.29 120.915 1021.44 122.065 1021.44 124.215V141.695C1021.44 143.835 1020.29 144.995 1017.98 144.995H994.56C977.41 144.995 969.82 137.905 969.82 121.405V82.3152H963.55C961.41 82.3152 960.09 81.1652 960.09 79.0152V61.5352C960.09 59.3952 961.41 58.2352 963.55 58.2352H969.82V39.4352C969.82 37.2952 971.14 36.1352 973.28 36.1352H996.37C998.68 36.1352 999.83 37.2852 999.83 39.4352V58.2352H1017.97C1020.28 58.2352 1021.43 59.3852 1021.43 61.5352V79.0152C1021.43 81.1552 1020.28 82.3152 1017.97 82.3152H999.83L999.84 82.3252Z" fill="url(#paint1_linear_32_490)"/>
<path d="M669.29 61.5453C669.29 60.5561 669.027 59.8809 668.579 59.4487C668.128 59.0135 667.408 58.7455 666.33 58.7455H646.54C645.468 58.7456 644.748 59.0154 644.295 59.4526C643.845 59.887 643.58 60.5629 643.58 61.5453V175.366C643.58 176.354 643.843 177.029 644.291 177.461C644.742 177.897 645.462 178.165 646.54 178.165H669.63C670.707 178.165 671.427 177.895 671.879 177.458C672.327 177.025 672.59 176.349 672.59 175.366V131.759L673.541 133.749C676.899 140.776 683.767 144.515 695.03 144.515H712.02C720.546 144.515 726.535 142.749 730.399 139.043C734.258 135.342 736.1 129.607 736.1 121.425V82.3354H736.09V81.8354C736.09 73.649 734.246 67.9134 730.385 64.2133C726.52 60.5087 720.531 58.7456 712.01 58.7455H693.54C686.68 58.7456 681.434 60.1747 677.629 62.8979C673.832 65.6148 671.414 69.6603 670.279 75.0092L669.29 79.6723V61.5453ZM507.65 61.5453C507.65 60.5562 507.387 59.8809 506.939 59.4487C506.488 59.0135 505.768 58.7456 504.69 58.7455H484.9C483.828 58.7455 483.108 59.0153 482.655 59.4526C482.205 59.887 481.94 60.5628 481.94 61.5453V141.706C481.94 142.694 482.203 143.369 482.651 143.801C483.102 144.236 483.822 144.505 484.9 144.505H507.99C509.067 144.505 509.788 144.235 510.239 143.798C510.687 143.364 510.95 142.689 510.95 141.706V93.0453C510.95 89.426 511.834 86.5846 513.913 84.6596C515.983 82.7428 519.143 81.8256 523.49 81.8256H527.94C530.131 81.8256 531.889 81.9078 533.286 82.1528C534.684 82.3979 535.769 82.813 536.576 83.5151C537.391 84.2239 537.868 85.1782 538.144 86.3911C538.399 87.5127 538.486 88.8853 538.497 90.5434L538.53 90.5551V141.715C538.53 142.704 538.793 143.38 539.241 143.812C539.692 144.247 540.412 144.515 541.49 144.515H564.58C565.563 144.515 566.292 144.249 566.771 143.802C567.245 143.36 567.54 142.68 567.54 141.715V93.0551C567.54 89.4355 568.427 86.5958 570.485 84.6713C572.536 82.754 575.656 81.8354 579.92 81.8354H584.37C586.561 81.8354 588.318 81.9175 589.716 82.1625C591.114 82.4077 592.198 82.8236 593.006 83.5258C593.82 84.2347 594.299 85.188 594.575 86.4008C594.848 87.603 594.93 89.094 594.93 90.9155V141.715C594.93 142.685 595.225 143.364 595.698 143.805C596.177 144.251 596.906 144.515 597.89 144.515H620.98C622.057 144.515 622.777 144.245 623.228 143.808C623.677 143.374 623.94 142.699 623.94 141.715V81.8354C623.94 73.649 622.096 67.9134 618.235 64.2133C614.37 60.5088 608.381 58.7456 599.86 58.7455H588.48C581.777 58.7455 576.607 60.0935 572.819 62.6772C569.042 65.254 566.588 69.0953 565.377 74.1909L564.845 76.4262L564.399 74.1723C563.345 68.8364 560.972 65.0073 557.166 62.4975C553.342 59.9759 548.012 58.7456 540.97 58.7455H531.9C525.04 58.7455 519.794 60.1747 515.989 62.8979C512.193 65.6148 509.774 69.6603 508.639 75.0092L507.65 79.6723V61.5453ZM463.28 80.5053C463.28 72.7316 461.56 67.3276 457.928 63.8549C454.292 60.3773 448.634 58.7348 440.52 58.7348H394.83C386.304 58.7348 380.315 60.5016 376.451 64.2075C372.592 67.9088 370.75 73.6443 370.75 81.8256V121.415C370.75 129.602 372.594 135.337 376.455 139.037C380.162 142.59 385.822 144.357 393.796 144.496H440.51C448.624 144.495 454.282 142.853 457.919 139.375C461.55 135.903 463.27 130.499 463.27 122.725V117.286C463.27 116.297 463.007 115.621 462.559 115.189C462.108 114.754 461.389 114.485 460.31 114.485H438.04C436.963 114.485 436.243 114.755 435.792 115.192C435.343 115.626 435.08 116.302 435.08 117.286V117.945C435.08 119.176 434.773 120.161 434.057 120.828C433.349 121.487 432.334 121.746 431.12 121.746H410.34C408.149 121.746 406.392 121.663 404.995 121.418C403.597 121.173 402.512 120.757 401.705 120.055C400.89 119.346 400.411 118.392 400.135 117.179C399.862 115.977 399.78 114.487 399.78 112.665V108.045H460.32C461.397 108.045 462.118 107.775 462.569 107.338C463.017 106.904 463.28 106.229 463.28 105.246V80.5053ZM845.12 80.5053C845.12 72.7316 843.4 67.3276 839.768 63.8549C836.132 60.3773 830.474 58.7348 822.36 58.7348H776.67C768.144 58.7348 762.155 60.5016 758.291 64.2075C754.432 67.9088 752.59 73.6443 752.59 81.8256V121.415C752.59 129.602 754.432 135.337 758.291 139.037C761.997 142.59 767.657 144.357 775.635 144.496H822.35C830.464 144.495 836.122 142.853 839.759 139.375C843.39 135.903 845.11 130.499 845.11 122.725V117.286C845.11 116.297 844.847 115.621 844.399 115.189C843.948 114.754 843.228 114.485 842.15 114.485H819.88C818.803 114.485 818.083 114.755 817.632 115.192C817.183 115.626 816.92 116.302 816.92 117.286V117.945C816.92 119.176 816.613 120.161 815.897 120.828C815.189 121.487 814.174 121.746 812.96 121.746H792.18C789.989 121.746 788.232 121.663 786.835 121.418C785.437 121.173 784.352 120.757 783.545 120.055C782.73 119.346 782.251 118.392 781.975 117.179C781.702 115.977 781.62 114.487 781.62 112.665V108.045H842.16C843.237 108.045 843.958 107.775 844.409 107.338C844.857 106.904 845.12 106.229 845.12 105.246V80.5053ZM335.77 39.435C335.77 38.4459 335.507 37.7705 335.059 37.3383C334.665 36.9576 334.064 36.7052 333.198 36.6479L332.81 36.6352H309.72C308.737 36.6352 308.008 36.901 307.529 37.3481C307.055 37.7904 306.761 38.4704 306.76 39.435V58.7348H299.99C299.007 58.7348 298.278 59.0014 297.799 59.4487C297.325 59.8911 297.03 60.571 297.03 61.5356V79.0151C297.03 79.9853 297.325 80.6652 297.799 81.1059C298.277 81.5515 299.006 81.8149 299.99 81.8149H306.76V121.405C306.76 129.588 308.643 135.324 312.543 139.025C316.449 142.731 322.479 144.496 331 144.496H354.42C355.497 144.496 356.217 144.225 356.669 143.789C357.117 143.355 357.38 142.678 357.38 141.695V124.215C357.38 123.226 357.116 122.551 356.669 122.119C356.218 121.684 355.498 121.415 354.42 121.415H341.39C339.602 121.415 338.175 121.034 337.198 120.129C336.213 119.217 335.78 117.862 335.78 116.135V82.5317L335.062 81.8149H354.41C355.487 81.8149 356.208 81.5454 356.659 81.1088C357.107 80.6749 357.37 79.9987 357.37 79.0151V61.5356C357.37 60.5464 357.107 59.8711 356.659 59.4389C356.208 59.0037 355.488 58.7348 354.41 58.7348H335.77V39.435ZM999.33 39.435C999.33 38.4459 999.067 37.7705 998.619 37.3383C998.168 36.9032 997.448 36.6352 996.37 36.6352H973.28C972.297 36.6352 971.568 36.9009 971.089 37.3481C970.615 37.7904 970.32 38.4704 970.32 39.435V58.7348H963.551C962.567 58.7348 961.838 59.0014 961.359 59.4487C960.885 59.891 960.591 60.5709 960.591 61.5356V79.0151C960.591 79.9853 960.885 80.6652 961.358 81.1059C961.837 81.5516 962.566 81.8149 963.551 81.8149H970.32V121.405C970.32 129.588 972.203 135.324 976.103 139.025C980.009 142.731 986.04 144.496 994.56 144.496H1017.98C1019.06 144.496 1019.78 144.225 1020.23 143.789C1020.68 143.355 1020.94 142.678 1020.94 141.695V124.215C1020.94 123.226 1020.68 122.551 1020.23 122.119C1019.78 121.683 1019.06 121.416 1017.98 121.415H1004.95C1003.16 121.415 1001.73 121.034 1000.76 120.129C999.772 119.217 999.341 117.862 999.341 116.135V82.5327L998.623 81.8149H1017.97C1019.05 81.8148 1019.77 81.5444 1020.22 81.1078C1020.67 80.674 1020.93 79.9986 1020.93 79.0151V61.5356C1020.93 60.5466 1020.67 59.8712 1020.22 59.4389C1019.77 59.0038 1019.05 58.7349 1017.97 58.7348H999.33V39.435ZM706.08 90.9047C706.08 89.0964 705.997 87.6998 705.75 86.6127C705.505 85.5364 705.107 84.7986 704.5 84.27C703.885 83.7347 703 83.3664 701.693 83.1371C700.385 82.9078 698.699 82.8256 696.52 82.8256H685.14C680.907 82.8256 678.046 83.7224 676.242 85.393C674.446 87.0556 673.6 89.5747 673.6 93.0453V110.195C673.6 113.665 674.446 116.185 676.242 117.847C678.046 119.518 680.907 120.415 685.14 120.415H696.52C698.699 120.415 700.385 120.332 701.693 120.103C703 119.874 703.885 119.505 704.5 118.97C705.107 118.442 705.505 117.704 705.75 116.627C705.966 115.676 706.057 114.488 706.076 112.995L706.08 112.335V90.9047ZM433.59 86.2856C433.59 84.9847 433.209 84.061 432.554 83.4575C431.893 82.8481 430.877 82.4956 429.47 82.4955H410.34C408.161 82.4956 406.476 82.5778 405.168 82.8071C403.861 83.0363 402.976 83.4047 402.361 83.9399C401.753 84.4685 401.355 85.2061 401.11 86.2827C400.863 87.3698 400.78 88.7671 400.78 90.5756V94.1948H433.59V86.2856ZM815.43 86.2856C815.43 84.9848 815.05 84.061 814.395 83.4575C813.734 82.8479 812.718 82.4956 811.31 82.4955H792.18C790.002 82.4955 788.316 82.5777 787.008 82.8071C785.7 83.0363 784.816 83.4047 784.201 83.9399C783.593 84.4685 783.195 85.2061 782.95 86.2827C782.703 87.3698 782.62 88.7671 782.62 90.5756V94.1948H815.43V86.2856ZM949.69 80.185C949.69 72.4053 948.049 67.0881 944.504 63.7006C940.952 60.3078 935.38 58.7456 927.26 58.7455H882.72C874.687 58.7455 869.157 60.3073 865.627 63.6996C862.101 67.0873 860.46 72.4052 860.46 80.185V86.6157C860.46 95.236 862.105 100.536 865.612 103.709C869.132 106.895 874.652 108.055 882.72 108.055H917.36C919.209 108.055 920.636 108.678 921.593 109.798C922.539 110.907 922.97 112.439 922.97 114.165V116.475C922.97 118.202 922.538 119.557 921.552 120.469C920.575 121.374 919.149 121.755 917.36 121.755H891.13C889.845 121.755 888.821 121.501 888.127 120.831C887.428 120.158 887.17 119.168 887.17 117.956V117.295C887.17 116.325 886.875 115.645 886.402 115.205C885.923 114.759 885.194 114.496 884.21 114.496H861.78C860.797 114.496 860.068 114.761 859.589 115.208C859.115 115.651 858.82 116.331 858.82 117.295V123.065C858.82 130.845 860.461 136.163 864.007 139.55C867.558 142.943 873.13 144.505 881.25 144.505H929.58C937.699 144.505 943.271 142.943 946.823 139.55C950.369 136.163 952.01 130.845 952.01 123.065V116.635C952.01 108.015 950.363 102.716 946.835 99.5424C943.292 96.3562 937.729 95.1948 929.58 95.1948H894.94C893.148 95.1948 891.754 94.8148 890.815 93.9008C889.873 92.9839 889.49 91.6287 889.49 89.9155V89.7084L889.5 89.6987V86.7748C889.5 85.061 889.886 83.7061 890.829 82.7895C891.769 81.876 893.162 81.4956 894.95 81.4955H917.38C918.665 81.4955 919.689 81.7502 920.384 82.4194C921.082 83.093 921.341 84.0829 921.341 85.2953V85.9555C921.341 86.9255 921.635 87.6047 922.108 88.0453C922.587 88.4912 923.316 88.7553 924.301 88.7553H946.73C947.807 88.7553 948.527 88.4848 948.978 88.0483C949.427 87.6144 949.69 86.939 949.69 85.9555V80.185ZM707.08 112.345C707.08 114.162 706.997 115.649 706.724 116.849C706.449 118.062 705.971 119.016 705.156 119.725C704.349 120.427 703.263 120.843 701.865 121.088C700.468 121.333 698.711 121.415 696.52 121.415H685.14C680.794 121.415 677.634 120.497 675.563 118.581C673.484 116.656 672.6 113.814 672.6 110.195V93.0453C672.6 89.426 673.484 86.5846 675.563 84.6596C677.634 82.7429 680.794 81.8256 685.14 81.8256H696.52C698.711 81.8256 700.468 81.9078 701.865 82.1528C703.263 82.3979 704.349 82.8128 705.156 83.5151C705.971 84.2239 706.449 85.1782 706.724 86.3911C706.998 87.5932 707.08 89.0835 707.08 90.9047V112.345ZM434.59 95.1948H399.78V90.5756C399.78 88.7542 399.862 87.2632 400.135 86.061C400.411 84.8481 400.89 83.8939 401.705 83.185C402.512 82.483 403.597 82.0678 404.995 81.8227C406.392 81.5777 408.149 81.4956 410.34 81.4955H429.47C431.033 81.4956 432.327 81.8868 433.233 82.7221C434.146 83.5636 434.59 84.7864 434.59 86.2856V95.1948ZM816.43 95.1948H781.62V90.5756C781.62 88.7542 781.702 87.2632 781.975 86.061C782.251 84.8481 782.73 83.8939 783.545 83.185C784.352 82.483 785.437 82.0678 786.835 81.8227C788.232 81.5777 789.989 81.4955 792.18 81.4955H811.31C812.873 81.4956 814.167 81.8868 815.073 82.7221C815.986 83.5636 816.43 84.7864 816.43 86.2856V95.1948ZM464.28 105.246C464.28 106.402 463.968 107.376 463.264 108.057C462.563 108.735 461.553 109.045 460.32 109.045H400.78V112.665C400.78 114.474 400.863 115.87 401.11 116.957C401.355 118.034 401.753 118.772 402.361 119.3C402.976 119.835 403.86 120.204 405.168 120.433C406.476 120.662 408.161 120.746 410.34 120.746H431.12C432.216 120.746 432.932 120.508 433.376 120.095C433.812 119.689 434.08 119.023 434.08 117.945V117.286C434.08 116.129 434.392 115.154 435.096 114.473C435.798 113.795 436.807 113.485 438.04 113.485H460.31C461.542 113.485 462.552 113.792 463.254 114.469C463.958 115.149 464.27 116.125 464.27 117.286V122.725C464.27 130.621 462.525 136.353 458.609 140.098C454.698 143.838 448.726 145.495 440.51 145.496H396.026L396.036 145.505H394.83C386.201 145.505 379.9 143.723 375.762 139.758C371.621 135.788 369.75 129.729 369.75 121.415V81.8256C369.75 73.5173 371.618 67.457 375.759 63.4858C379.894 59.5192 386.196 57.7348 394.83 57.7348H440.52C448.736 57.7348 454.708 59.3928 458.619 63.1323C462.535 66.8771 464.28 72.609 464.28 80.5053V105.246ZM846.12 105.246C846.12 106.402 845.808 107.376 845.104 108.057C844.403 108.735 843.393 109.045 842.16 109.045H782.62V112.665C782.62 114.474 782.703 115.87 782.95 116.957C783.195 118.034 783.593 118.772 784.201 119.3C784.816 119.835 785.7 120.204 787.008 120.433C788.316 120.662 790.002 120.746 792.18 120.746H812.96C814.056 120.746 814.772 120.508 815.216 120.095C815.652 119.689 815.92 119.023 815.92 117.945V117.286C815.92 116.129 816.232 115.154 816.936 114.473C817.637 113.795 818.647 113.485 819.88 113.485H842.15C843.382 113.485 844.392 113.792 845.094 114.469C845.798 115.149 846.11 116.125 846.11 117.286V122.725C846.11 130.621 844.365 136.353 840.449 140.098C836.538 143.838 830.566 145.495 822.35 145.496H777.869L777.879 145.505H776.67C768.036 145.505 761.735 143.724 757.599 139.758C753.459 135.788 751.59 129.729 751.59 121.415V81.8256C751.59 73.5171 753.459 67.457 757.599 63.4858C761.735 59.5193 768.036 57.7348 776.67 57.7348H822.36C830.576 57.7348 836.549 59.3925 840.46 63.1323C844.376 66.8771 846.12 72.6091 846.12 80.5053V105.246ZM950.69 85.9555C950.69 87.1117 950.378 88.086 949.674 88.767C948.972 89.4452 947.963 89.7553 946.73 89.7553H924.301C923.145 89.7553 922.143 89.4445 921.427 88.7778C920.705 88.106 920.341 87.1351 920.341 85.9555V85.2953C920.341 84.198 920.103 83.538 919.689 83.1391C919.271 82.7358 918.565 82.4955 917.38 82.4955H894.95C893.278 82.4956 892.196 82.8548 891.526 83.5063C890.859 84.1546 890.5 85.1892 890.5 86.7748V90.1127L890.492 90.1196C890.522 91.5911 890.876 92.5642 891.512 93.184C892.181 93.8351 893.263 94.1948 894.94 94.1948H929.58C937.76 94.1948 943.663 95.3448 947.503 98.7983C951.357 102.265 953.01 107.936 953.01 116.635V123.065C953.01 130.955 951.351 136.608 947.514 140.273C943.684 143.932 937.79 145.505 929.58 145.505H881.25C873.04 145.505 867.147 143.932 863.316 140.273C859.48 136.608 857.82 130.955 857.82 123.065V117.295C857.82 116.12 858.185 115.15 858.906 114.477C859.622 113.809 860.623 113.496 861.78 113.496H884.21C885.365 113.496 886.368 113.806 887.084 114.473C887.805 115.145 888.17 116.116 888.17 117.295V117.956C888.17 119.053 888.407 119.713 888.821 120.112C889.239 120.515 889.945 120.755 891.13 120.755H917.36C919.031 120.755 920.16 120.396 920.873 119.736C921.577 119.083 921.97 118.048 921.97 116.475V114.165C921.97 112.592 921.576 111.319 920.832 110.448C920.098 109.588 918.971 109.055 917.36 109.055H882.72C874.619 109.055 868.759 107.905 864.941 104.451C861.111 100.984 859.46 95.3147 859.46 86.6157V80.185C859.46 72.295 861.119 66.6428 864.933 62.978C868.743 59.3179 874.594 57.7455 882.72 57.7455H927.26C935.47 57.7456 941.363 59.3176 945.194 62.977C949.031 66.642 950.69 72.295 950.69 80.185V85.9555ZM508.65 71.2885C510.039 67.4214 512.268 64.3313 515.407 62.0844C519.437 59.2005 524.911 57.7455 531.9 57.7455H540.97C548.109 57.7456 553.663 58.9894 557.717 61.6625C561.303 64.0278 563.667 67.4806 564.928 72.059C566.318 67.682 568.733 64.2541 572.256 61.851C576.263 59.1172 581.653 57.7455 588.48 57.7455H599.86C608.489 57.7456 614.79 59.5264 618.927 63.4916C623.069 67.4616 624.94 73.5219 624.94 81.8354V141.715C624.94 142.872 624.628 143.846 623.924 144.527C623.222 145.205 622.213 145.515 620.98 145.515H597.89C596.735 145.515 595.732 145.204 595.016 144.538C594.295 143.866 593.93 142.895 593.93 141.715V90.9155C593.93 89.1069 593.847 87.7097 593.599 86.6225C593.355 85.5461 592.957 84.8083 592.349 84.2797C591.734 83.7445 590.85 83.3761 589.543 83.1469C588.234 82.9175 586.549 82.8354 584.37 82.8354H579.92C575.774 82.8354 572.954 83.7318 571.168 85.4018C569.389 87.0648 568.54 89.5848 568.54 93.0551V141.715C568.54 142.891 568.175 143.861 567.454 144.534C566.738 145.201 565.736 145.515 564.58 145.515H541.49C540.258 145.515 539.248 145.208 538.547 144.531C537.842 143.85 537.53 142.876 537.53 141.715V91.2758L537.5 91.2661V90.9047C537.5 89.0964 537.417 87.6998 537.17 86.6127C536.925 85.5363 536.527 84.7986 535.92 84.27C535.304 83.7347 534.42 83.3664 533.113 83.1371C531.805 82.9078 530.119 82.8256 527.94 82.8256H523.49C519.257 82.8256 516.397 83.7226 514.593 85.393C512.797 87.0556 511.95 89.5747 511.95 93.0453V141.706C511.95 142.862 511.638 143.836 510.934 144.517C510.233 145.195 509.223 145.505 507.99 145.505H484.9C483.669 145.505 482.658 145.198 481.957 144.521C481.252 143.841 480.94 142.866 480.94 141.706V61.5453C480.94 60.3879 481.256 59.4135 481.961 58.7328C482.663 58.0553 483.672 57.7455 484.9 57.7455H504.69C505.922 57.7456 506.932 58.0518 507.634 58.7289C508.338 59.4092 508.65 60.3846 508.65 61.5453V71.2885ZM670.29 71.2885C671.679 67.4214 673.907 64.3313 677.047 62.0844C681.076 59.2004 686.551 57.7456 693.54 57.7455H712.01C720.639 57.7456 726.94 59.5266 731.077 63.4916C735.135 67.3816 737.013 73.2782 737.087 81.3354H737.1V121.425C737.1 129.734 735.232 135.794 731.092 139.765C726.956 143.732 720.654 145.515 712.02 145.515H695.03C684.468 145.515 677.44 142.271 673.59 135.934V175.366C673.59 176.522 673.278 177.496 672.574 178.177C671.873 178.856 670.862 179.165 669.63 179.165H646.54C645.308 179.165 644.298 178.858 643.596 178.181C642.892 177.501 642.58 176.526 642.58 175.366V61.5453C642.58 60.3879 642.895 59.4135 643.6 58.7328C644.302 58.0552 645.312 57.7456 646.54 57.7455H666.33C667.561 57.7455 668.572 58.0519 669.273 58.7289C669.978 59.4092 670.29 60.3846 670.29 61.5453V71.2885ZM336.77 57.7348H354.41C355.641 57.7348 356.652 58.042 357.353 58.7192C358.058 59.3994 358.37 60.3748 358.37 61.5356V79.0151C358.37 80.1712 358.058 81.1455 357.354 81.8266C356.653 82.505 355.643 82.8149 354.41 82.8149H336.78V116.135C336.78 117.708 337.173 118.743 337.878 119.396C338.59 120.056 339.719 120.415 341.39 120.415H354.42C355.651 120.415 356.662 120.722 357.364 121.399C358.069 122.079 358.38 123.055 358.38 124.215V141.695C358.38 142.851 358.068 143.826 357.364 144.507C356.663 145.186 355.652 145.496 354.42 145.496H331C322.371 145.496 316.031 143.714 311.854 139.75C307.672 135.781 305.76 129.721 305.76 121.405V82.8149H299.99C298.834 82.8149 297.833 82.504 297.117 81.8373C296.395 81.1656 296.03 80.1948 296.03 79.0151V61.5356C296.03 60.3604 296.395 59.3898 297.116 58.7172C297.832 58.0495 298.833 57.7348 299.99 57.7348H305.76V39.435C305.761 38.2598 306.126 37.2892 306.846 36.6166C307.562 35.949 308.564 35.6352 309.72 35.6352H332.81L333.261 35.6498C334.289 35.7178 335.14 36.027 335.754 36.6196C336.458 37.2998 336.77 38.2744 336.77 39.435V57.7348ZM1000.33 57.7348H1017.97C1019.2 57.7349 1020.21 58.042 1020.91 58.7192C1021.62 59.3994 1021.93 60.3749 1021.93 61.5356V79.0151C1021.93 80.1713 1021.62 81.1455 1020.91 81.8266C1020.21 82.5049 1019.2 82.8148 1017.97 82.8149H1000.34V116.135C1000.34 117.708 1000.73 118.743 1001.44 119.396C1002.15 120.056 1003.28 120.415 1004.95 120.415H1017.98C1019.21 120.416 1020.22 120.722 1020.92 121.399C1021.63 122.079 1021.94 123.054 1021.94 124.215V141.695C1021.94 142.851 1021.63 143.826 1020.92 144.507C1020.22 145.185 1019.21 145.496 1017.98 145.496H994.56C985.931 145.496 979.591 143.714 975.415 139.75C971.232 135.781 969.32 129.721 969.32 121.405V82.8149H963.551C962.395 82.8149 961.393 82.504 960.677 81.8373C959.955 81.1656 959.591 80.1947 959.591 79.0151V61.5356C959.591 60.3603 959.956 59.3898 960.677 58.7172C961.392 58.0495 962.394 57.7348 963.551 57.7348H969.32V39.435C969.32 38.2598 969.685 37.2892 970.406 36.6166C971.122 35.9489 972.123 35.6352 973.28 35.6352H996.37C997.601 35.6352 998.612 35.9423 999.313 36.6196C1000.02 37.2998 1000.33 38.2743 1000.33 39.435V57.7348Z" fill="url(#paint2_linear_32_490)"/>
<defs>
<linearGradient id="paint0_linear_32_490" x1="296.03" y1="107.4" x2="1021.94" y2="107.4" gradientUnits="userSpaceOnUse">
<stop offset="0.2" stop-color="#A855F7"/>
<stop offset="0.7" stop-color="#6366F1"/>
<stop offset="1" stop-color="#3B82F6"/>
</linearGradient>
<linearGradient id="paint1_linear_32_490" x1="296.03" y1="107.4" x2="1021.94" y2="107.4" gradientUnits="userSpaceOnUse">
<stop offset="0.2" stop-color="#A855F7"/>
<stop offset="0.7" stop-color="#6366F1"/>
<stop offset="1" stop-color="#3B82F6"/>
</linearGradient>
<linearGradient id="paint2_linear_32_490" x1="296.03" y1="107.4" x2="1021.94" y2="107.4" gradientUnits="userSpaceOnUse">
<stop offset="0.2" stop-color="#A855F7"/>
<stop offset="0.7" stop-color="#6366F1"/>
<stop offset="1" stop-color="#3B82F6"/>
</linearGradient>
</defs>
</svg>
