<svg width="982" height="155" viewBox="0 0 982 155" fill="none" xmlns="http://www.w3.org/2000/svg">
<g clip-path="url(#clip0_49_158)">
<path d="M77.06 0.0400391C34.5 0.0400391 0 34.54 0 77.1C0 119.66 34.5 154.16 77.06 154.16C119.62 154.16 154.12 119.66 154.12 77.1C154.12 34.54 119.62 0.0400391 77.06 0.0400391Z" fill="#08B24D"/>
<path d="M100.58 145.31C97.39 129.76 90.79 115.14 82.1 101.91C73.56 88.9001 63.42 77.0401 55.93 63.3401C49.55 51.6701 43.54 37.7001 46.23 24.0901C47.27 18.8601 49.15 14.0201 51.69 9.56014C51.84 9.50014 51.98 9.44014 52.12 9.39014C48.41 17.5201 46.4 28.0701 51.7 39.3101C56.79 50.1201 63.02 59.5601 69.47 68.2101C69.61 60.9501 72.85 52.2801 84.67 45.6001C109.62 31.4801 109.37 19.3801 109.37 19.3801C109.37 19.3801 115.38 40.7501 111.79 53.1801C108.66 64.0201 99.95 83.2201 81.68 83.7201C91.95 96.3701 101.32 107.8 106 120.26C108.47 126.85 110.25 133.66 111.47 140.53C108 142.41 104.36 144 100.58 145.3V145.31Z" fill="white"/>
<path d="M272.76 98.85C273.95 96.92 275.58 96.33 277.51 97.51L285.23 102.11C287.01 103.3 287.61 104.93 286.42 106.86C279.89 118.14 269.65 123.63 255.54 123.63C232.53 123.63 220.06 111.01 220.06 88.01V57.13C220.06 34.12 232.53 21.51 255.54 21.51C269.94 21.51 280.18 27.15 286.56 38.28C287.6 40.21 287.15 41.84 285.22 43.03L277.65 47.78C275.72 48.97 274.09 48.52 272.9 46.59C268.89 40.36 263.25 36.94 255.53 36.94C243.8 36.94 237.87 44.36 237.87 58.76V86.37C237.87 100.77 243.81 108.19 255.53 108.19C263.25 108.19 268.74 104.92 272.75 98.84L272.76 98.85Z" fill="#08B24D"/>
<path d="M351.88 75.6901V95.4301C351.88 113.54 341.64 123.63 322.79 123.63C303.94 123.63 295.18 115.32 295.18 100.18C295.18 85.0401 304.53 77.6201 321.9 77.6201H335.7V76.8801C335.7 65.1501 331.1 60.2601 320.86 60.2601C316.11 60.2601 311.51 62.1901 307.8 65.0101C306.02 66.3501 304.39 66.2001 303.05 64.2701L299.04 58.0401C297.85 56.2601 298 54.6301 299.78 53.2901C306.46 48.5401 313.73 46.3101 322.34 46.3101C341.34 46.3101 351.88 56.2601 351.88 75.7001V75.6901ZM335.7 94.1001V89.6501H324.12C316.1 89.6501 311.35 93.2101 311.35 99.7401C311.35 106.27 315.51 109.69 322.78 109.69C331.69 109.69 335.69 104.64 335.69 94.1001H335.7Z" fill="#08B24D"/>
<path d="M461.28 74.06V118.44C461.28 120.67 460.09 121.85 457.87 121.85H448.52C446.29 121.85 445.11 120.66 445.11 118.44V74.9501C445.11 65.0001 441.4 60.25 433.53 60.25C425.66 60.25 422.1 65.0001 422.1 74.9501V118.44C422.1 120.67 420.91 121.85 418.69 121.85H409.34C407.11 121.85 405.93 120.66 405.93 118.44V74.9501C405.93 65.0001 402.22 60.25 394.2 60.25C386.63 60.25 382.92 65.0001 382.92 74.9501V118.44C382.92 120.67 381.73 121.85 379.51 121.85H370.16C367.93 121.85 366.75 120.66 366.75 118.44V74.06C366.75 56.1 376.1 46.3 393.32 46.3C402.52 46.3 409.5 49.2701 413.8 54.7601H414.1C418.4 49.2701 425.23 46.3 434.44 46.3C451.81 46.3 461.31 56.1 461.31 74.06H461.28Z" fill="#08B24D"/>
<path d="M535.65 74.5V95.43C535.65 113.69 526.45 123.63 509.67 123.63C503.14 123.63 497.94 121.7 494.38 117.84H494.08V142.18C494.08 144.41 492.89 145.59 490.67 145.59H481.32C479.09 145.59 477.91 144.4 477.91 142.18V74.49C477.91 56.38 488 46.29 506.71 46.29C525.42 46.29 535.66 56.38 535.66 74.49L535.65 74.5ZM519.47 75.84C519.47 65.3 515.46 60.25 506.7 60.25C497.94 60.25 494.08 65.3 494.08 75.84V94.25C494.08 104.49 498.38 109.69 506.7 109.69C515.46 109.69 519.47 104.64 519.47 94.25V75.84Z" fill="#08B24D"/>
<path d="M606.16 96.3198C606.16 113.98 596.36 123.63 578.4 123.63C560.44 123.63 550.49 113.98 550.49 96.3198V51.4898C550.49 49.2598 551.68 48.0798 553.9 48.0798H563.25C565.48 48.0798 566.66 49.2698 566.66 51.4898V95.5798C566.66 105.23 570.37 109.68 578.54 109.68C586.71 109.68 590.42 105.23 590.42 95.5798V51.4898C590.42 49.2598 591.61 48.0798 593.83 48.0798H602.74C604.97 48.0798 606.15 49.2698 606.15 51.4898V96.3198H606.16Z" fill="#08B24D"/>
<path d="M646.98 123.64C635.1 123.64 626.79 121.26 620.11 115.77C618.48 114.43 618.33 112.8 619.37 111.02L623.38 104.93C624.57 103 626.2 102.85 627.98 104.19C633.03 107.75 639.11 109.83 645.05 109.83C652.77 109.83 657.07 106.56 657.07 100.92C657.07 96.02 653.8 93.65 643.27 92.01C625.9 89.34 619.67 82.51 619.67 69C619.67 55.49 630.36 46.29 646.69 46.29C655.15 46.29 663.02 48.37 668.66 52.08C670.44 53.27 670.59 54.9 669.55 56.83L665.84 62.77C664.65 64.7 663.17 64.85 661.24 63.66C657.53 61.28 653.08 60.1 648.47 60.1C640.31 60.1 635.85 63.22 635.85 69.01C635.85 73.61 638.97 75.69 649.06 77.17C666.58 79.69 673.11 86.82 673.11 100.92C673.11 115.02 663.02 123.63 646.99 123.63L646.98 123.64Z" fill="#08B24D"/>
<path d="M768.55 98.85C769.74 96.92 771.37 96.33 773.3 97.51L781.02 102.11C782.8 103.3 783.4 104.93 782.21 106.86C775.68 118.14 765.44 123.63 751.33 123.63C728.32 123.63 715.85 111.01 715.85 88.01V57.13C715.85 34.12 728.32 21.51 751.33 21.51C765.73 21.51 775.97 27.15 782.35 38.28C783.39 40.21 782.94 41.84 781.01 43.03L773.44 47.78C771.51 48.97 769.88 48.52 768.69 46.59C764.68 40.36 759.04 36.94 751.32 36.94C739.59 36.94 733.66 44.36 733.66 58.76V86.37C733.66 100.77 739.6 108.19 751.32 108.19C759.04 108.19 764.53 104.92 768.54 98.84L768.55 98.85Z" fill="#08B24D"/>
<path d="M847.66 75.6901V95.4301C847.66 113.54 837.42 123.63 818.57 123.63C799.72 123.63 790.96 115.32 790.96 100.18C790.96 85.0401 800.31 77.6201 817.68 77.6201H831.48V76.8801C831.48 65.1501 826.88 60.2601 816.64 60.2601C811.89 60.2601 807.29 62.1901 803.58 65.0101C801.8 66.3501 800.17 66.2001 798.83 64.2701L794.82 58.0401C793.63 56.2601 793.78 54.6301 795.56 53.2901C802.24 48.5401 809.51 46.3101 818.12 46.3101C837.12 46.3101 847.66 56.2601 847.66 75.7001V75.6901ZM831.48 94.1001V89.6501H819.9C811.88 89.6501 807.13 93.2101 807.13 99.7401C807.13 106.27 811.29 109.69 818.56 109.69C827.47 109.69 831.47 104.64 831.47 94.1001H831.48Z" fill="#08B24D"/>
<path d="M886.7 123.64C874.82 123.64 866.51 121.26 859.83 115.77C858.2 114.43 858.05 112.8 859.09 111.02L863.1 104.93C864.29 103 865.92 102.85 867.7 104.19C872.75 107.75 878.83 109.83 884.77 109.83C892.49 109.83 896.79 106.56 896.79 100.92C896.79 96.02 893.52 93.65 882.99 92.01C865.62 89.34 859.39 82.51 859.39 69C859.39 55.49 870.08 46.29 886.41 46.29C894.87 46.29 902.74 48.37 908.38 52.08C910.16 53.27 910.31 54.9 909.27 56.83L905.56 62.77C904.37 64.7 902.89 64.85 900.96 63.66C897.25 61.28 892.8 60.1 888.19 60.1C880.03 60.1 875.57 63.22 875.57 69.01C875.57 73.61 878.69 75.69 888.78 77.17C906.3 79.69 912.83 86.82 912.83 100.92C912.83 115.02 902.74 123.63 886.71 123.63L886.7 123.64Z" fill="#08B24D"/>
<path d="M981.55 74.0599V118.44C981.55 120.67 980.36 121.85 978.14 121.85H968.79C966.56 121.85 965.38 120.66 965.38 118.44V75.0999C965.38 65.0099 961.52 60.26 953.21 60.26C944.9 60.26 941.04 65.3099 941.04 75.0999V118.44C941.04 120.67 939.85 121.85 937.63 121.85H928.28C926.05 121.85 924.87 120.66 924.87 118.44V21.36C924.87 19.13 926.06 17.95 928.28 17.95H937.63C939.86 17.95 941.04 19.14 941.04 21.36V51.94H941.34C944.9 48.08 950.1 46.2999 956.78 46.2999C972.81 46.2999 981.57 55.9499 981.57 74.0599H981.55Z" fill="#08B24D"/>
</g>
<defs>
<clipPath id="clip0_49_158">
<rect width="981.55" height="154.12" fill="white" transform="translate(0 0.0400391)"/>
</clipPath>
</defs>
</svg>
