<svg width="696" height="208" viewBox="0 0 696 208" fill="none" xmlns="http://www.w3.org/2000/svg">
<g clip-path="url(#clip0_49_79)">
<path d="M215.85 123.82C191.01 123.82 183.43 116.09 183.43 90.65V54.66C183.43 29.08 191.01 21.49 215.85 21.49H274.3C289.77 21.49 296.76 30.86 299.29 36.51L283.52 52.57C281.88 49.3 279.21 46.47 272.66 46.47H215.99C210.34 46.47 208.11 48.55 208.11 54.65V90.79C208.11 96.29 209.6 98.97 215.99 98.97H273.4C280.09 98.97 282.47 96 284.11 92.87L299.88 108.78C297.5 114.43 290.36 123.8 274.89 123.8H215.85V123.82Z" fill="black"/>
<path d="M345.09 123.82C321.89 123.82 313.71 114.6 313.71 91.4V21.49H338.4V91.39C338.4 96.74 340.33 98.97 345.09 98.97H395.81C400.72 98.97 402.65 96.74 402.65 91.39V21.49H427.34V91.39C427.34 114.59 419.01 123.81 395.81 123.81H345.09V123.82Z" fill="black"/>
<path d="M443.84 123.82V21.49H525.64C548.54 21.49 556.13 27.14 556.13 48.41V54.36C556.13 64.03 551.82 69.23 543.49 70.87C551.97 72.21 558.66 77.86 558.66 89.76V96.45C558.66 117.87 549.74 123.82 526.83 123.82H443.84ZM531.59 52.28C531.59 48.12 529.8 46.48 525.64 46.48H468.68V63.29H525.94C529.96 63.29 531.59 61.51 531.59 57.19V52.28ZM533.97 87.98C533.97 83.37 532.33 81.58 527.28 81.58H468.68V98.98H526.83C532.18 98.98 533.97 97.19 533.97 93.03V87.97V87.98Z" fill="black"/>
<path d="M667.22 123.82L655.92 101.96H599.7L588.4 123.82H559.99L614.87 21.5H640.75L695.48 123.82H667.22ZM627.81 46.18L609.07 82.17H646.7L627.81 46.18Z" fill="black"/>
<path d="M206 198.37V163.45H190.3V157.16H227.8V163.45H212.22V198.37H205.99H206Z" fill="white"/>
<path d="M248.05 198.37C240.38 198.37 235.83 195.08 235.83 186.99V177.41C235.83 169.32 240.38 166.03 248.05 166.03H258.59C266.26 166.03 270.81 169.32 270.81 177.41V184.9H242V187C242 191.55 244.28 192.99 248.05 192.99H270.16L269.38 198.38H248.05V198.37ZM264.65 178C264.65 173.21 262.91 171.41 258.6 171.41H248.06C243.69 171.41 242.01 173.21 242.01 177.4V180.15H264.65V177.99V178Z" fill="white"/>
<path d="M296.27 198.37C288.6 198.37 284.05 195.08 284.05 186.99V177.41C284.05 169.32 288.6 166.03 296.27 166.03H309.33C314.48 166.03 316.88 169.27 317.6 171.24L314.25 174.78C313.47 173.04 312.09 171.42 309.04 171.42H296.28C292.51 171.42 290.23 173.28 290.23 177.41V186.99C290.23 191.18 292.57 192.98 296.28 192.98H309.34C312.4 192.98 313.83 191.36 314.55 189.69L317.97 193.16C317.19 195.14 314.85 198.37 309.64 198.37H296.28H296.27Z" fill="white"/>
<path d="M358.34 198.37V178.18C358.34 173.63 356.84 171.41 352.29 171.41H341.75C338.69 171.41 337.26 172.61 336.42 175.42V198.36H330.25V155.77L336.42 153.67V171.1C338.1 167.45 340.31 166.01 344.57 166.01H352.3C361.53 166.01 364.52 170.2 364.52 178.95V198.36H358.35L358.34 198.37Z" fill="white"/>
<path d="M406.08 198.37V178.18C406.08 173.63 404.58 171.41 400.03 171.41H389.49C386.43 171.41 385 172.61 384.16 175.42V198.36H377.99V166.01H383.92V171.1C385.6 167.45 387.81 166.01 392.01 166.01H400.04C409.27 166.01 412.26 170.2 412.26 178.95V198.36H406.09L406.08 198.37Z" fill="white"/>
<path d="M437.89 198.37C428.85 198.37 425.67 194.95 425.67 186.99V177.41C425.67 169.44 428.85 166.03 437.89 166.03H448.43C457.48 166.03 460.65 169.45 460.65 177.41V186.99C460.65 194.96 457.48 198.37 448.43 198.37H437.89ZM454.48 177.4C454.48 172.85 452.56 171.41 448.43 171.41H437.89C433.76 171.41 431.84 172.85 431.84 177.4V186.98C431.84 191.53 433.76 192.97 437.89 192.97H448.43C452.56 192.97 454.48 191.53 454.48 186.98V177.4Z" fill="white"/>
<path d="M474.13 198.37V155.78L480.3 153.68V198.37H474.13Z" fill="white"/>
<path d="M506.06 198.37C497.02 198.37 493.84 194.95 493.84 186.99V177.41C493.84 169.44 497.02 166.03 506.06 166.03H516.6C525.65 166.03 528.82 169.45 528.82 177.41V186.99C528.82 194.96 525.65 198.37 516.6 198.37H506.06ZM522.65 177.4C522.65 172.85 520.73 171.41 516.6 171.41H506.06C501.93 171.41 500.01 172.85 500.01 177.4V186.98C500.01 191.53 501.93 192.97 506.06 192.97H516.6C520.73 192.97 522.65 191.53 522.65 186.98V177.4Z" fill="white"/>
<path d="M570.64 189.45C568.9 193.16 566.75 194.6 562.49 194.6H554.04C544.81 194.6 541.82 190.71 541.82 182.14V178.97C541.82 170.22 544.82 166.03 554.04 166.03H561.47C563.87 166.03 569.5 166.75 570.88 171.12V166.03H576.81V193.05C576.81 200.9 574.35 207.73 561.77 207.73C558.89 207.73 556.02 207.31 553.38 206.41L554.16 201.5C556.8 202.34 558.89 202.64 561.53 202.64C568.78 202.64 570.64 198.81 570.64 193.06V189.47V189.45ZM570.64 175.43C569.74 172.61 568.36 171.42 565.31 171.42H554.05C549.74 171.42 548 173.28 548 179.69V181.43C548 188.2 549.74 189.7 553.99 189.7H564.53C568.12 189.7 569.74 188.74 570.64 185.69V175.45V175.43Z" fill="white"/>
<path d="M590.59 163.21V154.64H596.88V163.21H590.59ZM590.65 198.37V166.02H596.82V198.37H590.65Z" fill="white"/>
<path d="M622.81 198.37C615.14 198.37 610.59 195.08 610.59 186.99V177.41C610.59 169.32 615.14 166.03 622.81 166.03H633.35C641.02 166.03 645.57 169.32 645.57 177.41V184.9H616.76V187C616.76 191.55 619.04 192.99 622.81 192.99H644.92L644.14 198.38H622.81V198.37ZM639.41 178C639.41 173.21 637.67 171.41 633.36 171.41H622.82C618.45 171.41 616.77 173.21 616.77 177.4V180.15H639.41V177.99V178Z" fill="white"/>
<path d="M657.74 198.37L658.58 192.98H681.7C684.52 192.98 685.89 192.26 685.89 188.73C685.89 185.2 684.51 184.48 681.7 184.48H669.12C661.81 184.48 658.46 182.38 658.46 176.81V173.46C658.46 167.71 661.82 166.03 669.12 166.03H691.29L690.39 171.42H669.12C666.3 171.42 664.93 172.14 664.93 175.61C664.93 179.08 666.31 179.74 669.12 179.74H681.7C689.01 179.74 692.36 181.84 692.36 187.41V190.94C692.36 196.69 689.01 198.37 681.7 198.37H657.74Z" fill="white"/>
<path d="M36.63 49.81L42.71 55.98C43.91 53.22 46.48 50.09 52.1 50.09H69.67V40.52H51.55C42.35 40.52 38.02 46.32 36.64 49.82L36.63 49.81Z" fill="#60D316"/>
<path d="M63.2 60.6901C62.67 60.6901 62.19 60.7501 61.76 60.8501C58.27 61.3801 57.13 63.3601 57.13 68.1401V76.2201C57.13 81.0901 58.32 83.0701 62.03 83.5401C62.44 83.6101 62.86 83.66 63.34 83.66H69.66V60.6801H63.2V60.6901Z" fill="#60D316"/>
<path d="M37.37 114.68C20.72 114.68 18.24 107.59 18.24 93.78V50.74C18.24 34.98 23.2 29.84 37.37 29.84H69.66V11.24H37.37C8.68 11.24 0 20.27 0 50.74V93.61C0 123.9 8.68 133.11 37.37 133.11H69.66V114.69H37.37V114.68Z" fill="#60D316"/>
<path d="M52.55 94.17C47.03 94.17 44.36 91.22 43.07 88.28L37 94.54C38.47 98.04 42.71 103.84 51.91 103.84H69.67V94.18H52.56L52.55 94.17Z" fill="#60D316"/>
<path d="M96.73 83.3101V60.9401C96.73 53.7601 95.44 50.0801 86.79 50.0801H69.66V60.6801H76.84C77.31 60.6801 77.74 60.7301 78.13 60.8001C81.84 61.2701 83.04 63.2501 83.04 68.1201V76.2001C83.04 80.9701 81.9 82.9501 78.41 83.4901C77.96 83.5901 77.49 83.6501 76.97 83.6501H69.65V94.1601H86.78C94.14 94.1601 96.72 91.4901 96.72 83.3001L96.73 83.3101Z" fill="#60D316"/>
<path d="M69.66 0.530029V11.24H104.51C122.22 11.24 130.37 22.4 133.21 29.13L121.52 41.17C119.04 35.5 113.9 29.83 103.27 29.83H69.67V40.5H86.8C101.71 40.5 106.22 45.29 106.22 61.02V83.29C106.22 99.12 101.71 103.81 86.8 103.81H69.67V114.66H104.16C114.97 114.66 119.92 108.64 122.23 103.32L133.92 115.19C131.26 121.92 122.94 133.08 105.22 133.08H69.67V142.01H152.96V0.530029H69.67H69.66Z" fill="#60D316"/>
</g>
<defs>
<clipPath id="clip0_49_79">
<rect width="695.48" height="207.19" fill="white" transform="translate(0 0.530029)"/>
</clipPath>
</defs>
</svg>
