<svg width="851" height="142" viewBox="0 0 851 142" fill="none" xmlns="http://www.w3.org/2000/svg">
<g clip-path="url(#clip0_49_147)">
<path d="M282.67 11.6702C285.99 11.6702 287.65 13.3302 287.65 16.6502V35.2302C287.65 38.3802 285.99 40.2102 282.67 40.2102H240.87C237.72 40.2102 235.89 41.8702 235.89 45.1902V50.5002C235.89 53.6502 237.71 55.4802 240.87 55.4802H268.24C271.56 55.4802 273.22 57.1402 273.22 60.4602V79.0402C273.22 82.1902 271.56 84.0202 268.24 84.0202H240.87C237.72 84.0202 235.89 85.6802 235.89 89.0002V122.84C235.89 125.99 234.23 127.82 230.91 127.82H211.34C208.19 127.82 206.36 126 206.36 122.84V16.6402C206.36 13.3202 208.18 11.6602 211.34 11.6602H282.67V11.6702Z" fill="#FFDC6C"/>
<path d="M320.82 11.6702C324.14 11.6702 325.8 13.3302 325.8 16.6502V122.81C325.8 125.96 324.14 127.79 320.82 127.79H302.57C299.42 127.79 297.59 125.97 297.59 122.81V16.6402C297.59 13.3202 299.41 11.6602 302.57 11.6602H320.82V11.6702Z" fill="#FFDC6C"/>
<path d="M368.92 45.1802C368.92 41.8602 367.26 40.2002 363.94 40.2002H340.72C337.57 40.2002 335.74 38.3802 335.74 35.2202V16.6402C335.74 13.3202 337.56 11.6602 340.72 11.6602H425.65C428.97 11.6602 430.63 13.3202 430.63 16.6402V35.2202C430.63 38.3702 428.97 40.2002 425.65 40.2002H402.43C399.28 40.2002 397.45 41.8602 397.45 45.1802V122.81C397.45 125.96 395.79 127.79 392.47 127.79H373.89C370.74 127.79 368.91 125.97 368.91 122.81V45.1802H368.92Z" fill="#FFDC6C"/>
<path d="M566.64 11.6702C569.96 11.6702 571.62 13.3302 571.62 16.6502V35.2302C571.62 38.3802 569.96 40.2102 566.64 40.2102H524.84C521.69 40.2102 519.86 41.8702 519.86 45.1902V50.5002C519.86 53.6502 521.68 55.4802 524.84 55.4802H552.21C555.53 55.4802 557.19 57.1402 557.19 60.4602V79.0402C557.19 82.1902 555.53 84.0202 552.21 84.0202H524.84C521.69 84.0202 519.86 85.6802 519.86 89.0002V122.84C519.86 125.99 518.2 127.82 514.88 127.82H495.31C492.16 127.82 490.33 126 490.33 122.84V16.6402C490.33 13.3202 492.15 11.6602 495.31 11.6602H566.64V11.6702Z" fill="#FFDC6C"/>
<path d="M605.11 11.6702C608.43 11.6702 610.09 13.3302 610.09 16.6502V94.2802C610.09 97.4302 611.91 99.2602 615.07 99.2602H652.06C655.38 99.2602 657.04 100.92 657.04 104.24V122.82C657.04 126.14 655.38 127.8 652.06 127.8H586.54C583.39 127.8 581.56 125.98 581.56 122.82V16.6402C581.56 13.3202 583.38 11.6602 586.54 11.6602H605.12L605.11 11.6702Z" fill="#FFDC6C"/>
<path d="M741.96 11.6702C745.28 11.6702 746.94 13.3302 746.94 16.6502V35.2302C746.94 38.3802 745.28 40.2102 741.96 40.2102H701.82C698.67 40.2102 696.84 41.8702 696.84 45.1902V50.5002C696.84 53.6502 698.66 55.4802 701.82 55.4802H727.53C730.85 55.4802 732.51 57.1402 732.51 60.4602V79.0402C732.51 82.1902 730.85 84.0202 727.53 84.0202H701.82C698.67 84.0202 696.84 85.6802 696.84 89.0002V94.3102C696.84 97.4602 698.66 99.2902 701.82 99.2902H741.96C745.28 99.2902 746.94 100.95 746.94 104.27V122.85C746.94 126.17 745.28 127.83 741.96 127.83H672.29C669.14 127.83 667.31 126.01 667.31 122.85V16.6402C667.31 13.3202 669.13 11.6602 672.29 11.6602H741.96V11.6702Z" fill="#FFDC6C"/>
<path d="M849.45 121.81C851.44 125.29 849.95 127.78 845.97 127.78H825.4C822.58 127.78 820.76 126.78 819.43 124.46L803.01 96.5901C802.35 95.4301 801.52 95.4301 800.85 96.5901L784.93 124.29C783.6 126.78 781.78 127.77 778.96 127.77H756.4C752.42 127.77 750.93 125.28 752.92 121.8L784.77 67.8902C785.27 67.0602 785.27 66.4002 784.77 65.5702L756.57 17.6302C754.58 14.1502 756.07 11.6602 760.05 11.6602H780.62C783.44 11.6602 785.26 12.6602 786.59 14.9802L800.03 38.0402C800.69 39.2002 801.69 39.2002 802.35 38.0402L815.95 14.9802C817.28 12.6602 819.1 11.6602 821.92 11.6602H842.66C846.47 11.6602 847.97 14.1502 845.98 17.6302L818.11 66.4002C817.61 67.2302 817.61 67.8902 818.11 68.7202L849.46 121.8L849.45 121.81Z" fill="#FFDC6C"/>
<path d="M133.39 0.640137H7.01C3.14 0.640137 0 3.78014 0 7.65014V134.03C0 137.9 3.14 141.04 7.01 141.04H133.39C137.26 141.04 140.4 137.9 140.4 134.03V7.65014C140.4 3.78014 137.26 0.640137 133.39 0.640137ZM26.31 86.9401C26.31 90.3801 23.52 93.1701 20.1 93.1701C16.68 93.1701 13.86 90.3701 13.86 86.9401V54.7201C13.86 51.2801 16.64 48.4901 20.1 48.4901C23.56 48.4901 26.31 51.2901 26.31 54.7201V86.9401ZM42.99 95.3501C42.99 98.7901 40.2 101.58 36.78 101.58C33.36 101.58 30.53 98.7901 30.53 95.3501V46.3301C30.53 42.8801 33.34 40.1001 36.78 40.1001C40.22 40.1001 42.99 42.8801 42.99 46.3301V95.3501ZM93.12 77.0601H47.29V64.6101H93.12V77.0601ZM109.88 95.3501C109.88 98.7901 107.07 101.58 103.64 101.58C100.21 101.58 97.4 98.7901 97.4 95.3501V46.3301C97.4 42.8801 100.21 40.1001 103.64 40.1001C107.07 40.1001 109.88 42.8801 109.88 46.3301V95.3501ZM126.54 86.9401C126.54 90.3801 123.76 93.1701 120.3 93.1701C116.84 93.1701 114.09 90.3701 114.09 86.9401V54.7201C114.09 51.2801 116.88 48.4901 120.3 48.4901C123.72 48.4901 126.54 51.2901 126.54 54.7201V86.9401Z" fill="#FFDC6C"/>
</g>
<defs>
<clipPath id="clip0_49_147">
<rect width="850.32" height="140.4" fill="white" transform="translate(0 0.640137)"/>
</clipPath>
</defs>
</svg>
