<svg width="810" height="406" viewBox="0 0 810 406" fill="none" xmlns="http://www.w3.org/2000/svg">
<g clip-path="url(#clip0_49_15)">
<path d="M291.22 116.84H316.95V159.07H353.73V116.84H379.6V225.91H353.73V175.99H316.95V225.91H291.22V116.84Z" fill="#FFF91A"/>
<path d="M408.05 226.05C404.37 224.93 401.43 223.37 399.24 221.37C397.05 219.37 395.53 216.9 394.7 213.96C393.86 211.02 393.44 207.74 393.44 204.1V146.21H419.17V202.42C419.17 204.01 419.4 205.38 419.87 206.54C420.34 207.71 421.1 208.66 422.18 209.41C423.25 210.16 424.63 210.74 426.3 211.16C427.98 211.58 429.94 211.79 432.17 211.79C434.4 211.79 436.5 211.56 438.18 211.09C439.86 210.62 441.26 210.02 442.38 209.27C443.5 208.52 444.34 207.55 444.9 206.33C445.46 205.12 445.74 203.77 445.74 202.28V146.21H471.61V225.92H449.8L448.54 218.23C447.33 219.72 445.84 221.03 444.07 222.15C442.3 223.27 440.29 224.3 438.06 225.23C435.83 226.16 433.38 226.81 430.72 227.19C428.06 227.56 425.24 227.75 422.26 227.75C416.48 227.75 411.75 227.19 408.07 226.07L408.05 226.05Z" fill="#FFF91A"/>
<path d="M485.59 225.91V146.2H507.4L508.66 153.89C509.96 152.49 511.48 151.21 513.2 150.05C514.92 148.88 516.86 147.84 519 146.9C521.14 145.97 523.52 145.32 526.13 144.94C528.74 144.57 531.68 144.38 534.94 144.38C540.53 144.38 545.22 144.94 548.99 146.06C552.77 147.18 555.82 148.77 558.15 150.81C560.48 152.86 562.11 155.35 563.04 158.29C563.97 161.23 564.44 164.47 564.44 168.01V225.9H538.71V169.69C538.71 168.11 538.48 166.75 538.01 165.63C537.54 164.51 536.77 163.56 535.7 162.76C534.63 161.97 533.23 161.39 531.51 161.01C529.78 160.64 527.76 160.45 525.43 160.45C523.1 160.45 521.05 160.68 519.28 161.15C517.51 161.62 516.02 162.2 514.81 162.9C513.6 163.6 512.71 164.56 512.15 165.77C511.59 166.98 511.31 168.43 511.31 170.1V225.89H485.58L485.59 225.91Z" fill="#FFF91A"/>
<path d="M598.36 254.22C593.37 253.33 589.43 251.93 586.54 250.02C583.65 248.11 581.67 245.8 580.6 243.1C579.53 240.4 578.99 237.32 578.99 233.87V225.48H603.88V233.87C603.88 234.99 604.07 235.92 604.44 236.67C604.81 237.42 605.49 238.02 606.47 238.49C607.45 238.96 608.82 239.33 610.59 239.61C612.36 239.89 614.65 240.03 617.44 240.03C620.42 240.03 622.8 239.82 624.57 239.4C626.34 238.98 627.67 238.37 628.56 237.58C629.44 236.79 629.98 235.9 630.17 234.92C630.36 233.94 630.45 232.8 630.45 231.49V214.57C629.52 215.5 628.26 216.37 626.67 217.16C625.08 217.95 623.34 218.61 621.43 219.12C619.52 219.63 617.37 220.1 615 220.52C612.62 220.94 610.04 221.15 607.24 221.15C600.9 221.15 595.77 220.52 591.86 219.26C587.94 218 584.91 216.35 582.77 214.3C580.62 212.25 579.18 209.8 578.44 206.96C577.69 204.12 577.32 200.97 577.32 197.52V167.74C577.32 164.48 577.69 161.43 578.44 158.58C579.18 155.74 580.63 153.27 582.77 151.17C584.91 149.07 587.94 147.42 591.86 146.21C595.78 145 600.9 144.39 607.24 144.39C610.5 144.39 613.51 144.58 616.26 144.95C619.01 145.32 621.48 146 623.67 146.98C625.86 147.96 627.77 148.96 629.4 149.99C631.03 151.02 632.36 152.18 633.39 153.49L634.51 146.22H656.46V229.98C656.46 233.9 655.97 237.41 654.99 240.54C654.01 243.66 652.08 246.34 649.19 248.58C646.3 250.82 642.31 252.54 637.23 253.75C632.15 254.96 625.55 255.57 617.44 255.57C609.33 255.57 603.34 255.13 598.35 254.24L598.36 254.22ZM624.23 204.51C626.14 204.04 627.54 203.44 628.42 202.69C629.3 201.94 629.86 201.06 630.1 200.03C630.33 199.01 630.45 197.93 630.45 196.81V168.84C630.45 167.63 630.33 166.51 630.1 165.48C629.87 164.46 629.31 163.59 628.42 162.89C627.53 162.19 626.13 161.61 624.23 161.14C622.32 160.68 619.92 160.44 617.03 160.44C614.14 160.44 611.65 160.65 609.83 161.07C608.01 161.49 606.61 162.1 605.63 162.89C604.65 163.68 604 164.57 603.67 165.55C603.34 166.53 603.18 167.58 603.18 168.7V196.95C603.18 197.98 603.34 199.03 603.67 200.1C604 201.17 604.65 202.08 605.63 202.83C606.61 203.58 608.01 204.16 609.83 204.58C611.65 205 614.05 205.21 617.03 205.21C620.01 205.21 622.32 204.98 624.23 204.51Z" fill="#FFF91A"/>
<path d="M694.08 161.02C695.29 158.5 696.83 156.2 698.69 154.1C700.55 152 702.65 150.25 704.98 148.86C707.31 147.46 709.94 146.34 712.88 145.5C715.82 144.66 718.91 144.24 722.18 144.24V170.67H710.29C707.68 170.67 705.51 170.9 703.79 171.37C702.06 171.84 700.62 172.44 699.46 173.19C698.29 173.94 697.45 174.94 696.94 176.2C696.43 177.46 696.17 178.93 696.17 180.61V225.92H670.44V146.21H692.25L694.07 161.03L694.08 161.02Z" fill="#FFF91A"/>
<path d="M735.89 253.87V238.63H741.34C743.67 238.63 745.56 238.21 747 237.37C748.44 236.53 749.54 235.18 750.29 233.31L753.65 226.04L722.47 146.2H749.18L766.24 201.29L782.88 146.2H809.45L775.47 233.88C774.44 236.96 773.35 239.71 772.18 242.13C771.01 244.55 769.38 246.65 767.29 248.42C765.19 250.19 762.49 251.54 759.18 252.47C755.87 253.4 751.56 253.87 746.25 253.87H735.9H735.89Z" fill="#FFF91A"/>
<path d="M347.89 256.23H373.62V298.46H410.4V256.23H436.27V365.3H410.4V315.38H373.62V365.3H347.89V256.23Z" fill="#FFF91A"/>
<path d="M508.76 285.59C513.84 286.8 517.83 288.5 520.72 290.69C523.61 292.88 525.54 295.61 526.52 298.87C527.5 302.13 527.99 305.63 527.99 309.36V365.29H506.04L504.92 359.84C503.8 360.96 502.4 361.96 500.72 362.85C499.04 363.74 497.04 364.51 494.71 365.16C492.38 365.81 489.79 366.3 486.95 366.63C484.11 366.96 480.96 367.12 477.51 367.12C471.82 367.12 467.11 366.63 463.39 365.65C459.66 364.67 456.7 363.37 454.51 361.73C452.32 360.1 450.83 358.12 450.04 355.79C449.25 353.46 448.85 350.94 448.85 348.24V337.19C448.85 334.39 449.25 331.9 450.04 329.71C450.83 327.52 452.32 325.61 454.51 323.98C456.7 322.35 459.66 321.04 463.39 320.06C467.12 319.08 471.83 318.59 477.51 318.59C483.19 318.59 488.39 319.01 492.54 319.85C496.69 320.69 499.83 321.9 501.98 323.49V307.97C501.98 306.76 501.89 305.62 501.7 304.54C501.51 303.47 500.98 302.54 500.09 301.74C499.2 300.95 497.87 300.37 496.1 299.99C494.33 299.62 491.95 299.43 488.97 299.43C486.36 299.43 484.17 299.52 482.4 299.71C480.63 299.9 479.32 300.27 478.48 300.83C477.64 301.39 477.01 302.04 476.59 302.79C476.17 303.54 475.96 304.42 475.96 305.45V313.84H450.79V305.59C450.79 302.05 451.33 298.9 452.4 296.15C453.47 293.4 455.48 291.14 458.41 289.37C461.35 287.6 465.26 286.22 470.16 285.25C475.05 284.27 481.32 283.78 488.97 283.78C497.08 283.78 503.67 284.39 508.76 285.6V285.59ZM494.64 352.44C496.55 352.16 498.02 351.81 499.04 351.39C500.06 350.97 500.81 350.46 501.28 349.85C501.75 349.24 501.98 348.57 501.98 347.82V337.89C501.98 337.05 501.75 336.33 501.28 335.72C500.81 335.12 500.07 334.6 499.04 334.18C498.01 333.76 496.54 333.41 494.64 333.13C492.73 332.85 490.28 332.71 487.3 332.71C484.69 332.71 482.57 332.83 480.94 333.06C479.31 333.29 478.05 333.64 477.16 334.11C476.27 334.58 475.64 335.16 475.27 335.86C474.9 336.56 474.71 337.19 474.71 337.75V347.82C474.71 348.57 474.9 349.24 475.27 349.85C475.64 350.46 476.27 350.99 477.16 351.46C478.05 351.93 479.3 352.28 480.94 352.51C482.57 352.74 484.69 352.86 487.3 352.86C490.28 352.86 492.73 352.72 494.64 352.44Z" fill="#FFF91A"/>
<path d="M635.1 285.59H661.39L635.38 365.3H612.87L598.19 319.01L583.37 365.3H560.72L534.85 285.59H561.42L574.84 339.29L589.52 285.59H606.58L621.26 339.29L635.1 285.59Z" fill="#FFF91A"/>
<path d="M668.52 256.23H694.25V365.3H668.52V256.23ZM690.9 321.39L720.4 285.59H748.65L718.31 321.39H690.9ZM720.4 365.3L690.9 321.39H718.31L748.65 365.3H720.4Z" fill="#FFF91A"/>
<path fill-rule="evenodd" clip-rule="evenodd" d="M107.78 244.99C109.01 246.56 108.68 249.68 108.83 252.33C105.3 252.09 106.63 246.85 107.78 244.99ZM189.34 147.95C186.45 148.46 183.72 149.15 182.26 151.1C185.09 153.61 187.44 156.59 190.91 158.44C192.73 155.4 191.39 149.66 189.34 147.95ZM182.26 154.51C182.65 156.05 183.8 156.82 185.41 157.13C185.3 155.44 183.63 154.09 182.26 154.51ZM137.41 233.71C137.57 237.52 138.22 240.24 136.1 242.89C135.26 243.94 133.77 243.96 132.69 244.72C129.8 246.74 124.15 257.32 130.59 257.57C130.67 256.71 130.36 254.75 130.85 253.37C131.56 251.34 137.01 245.42 139.24 245.76C142.29 246.24 140.03 249.95 140.03 252.32C141.85 252.95 142.47 251.45 143.96 252.06C147.35 253.44 145.25 260.12 144.48 262.28C146.3 262.82 148.49 261.02 149.2 259.66C152.15 253.94 148.14 248.27 145.79 243.4C143.52 238.7 142.47 230.83 137.39 233.69L137.41 233.71ZM113.29 235.55C111.92 233.41 111.93 231.17 109.88 229.25C102.87 229.31 109 235.11 107.78 240C108.43 240.96 109.6 241.19 110.15 242.36C110.71 243.54 110.22 245.03 110.67 246.29C111.02 247.25 112.15 248.39 112.77 249.18C113.51 250.12 114.44 251.61 115.66 251.54C116.04 247.11 112.2 244.21 113.56 240.52C117.52 242.43 118.46 247.34 123 248.65C123.33 241.83 116.28 240.16 113.29 235.54V235.55ZM184.89 137.46C181.56 138.39 179.01 135.34 176.5 134.84C174.88 134.52 173.3 135.04 171.78 134.84C168.12 134.34 165.01 131.54 160.77 132.21C159.7 133.07 158.49 133.78 156.3 133.53C155.38 138.71 149.81 139.27 149.48 145.07C148.98 145.97 147.96 146.34 147.65 147.43C149.55 149.89 148.96 154.86 151.58 156.61C154.75 156.56 157.55 158.37 160.5 158.44C161.15 158.46 162.17 158.04 162.87 158.18C164.9 158.59 166.47 160.98 168.37 161.07C170.21 161.17 172.1 159.44 173.88 158.71C175.96 157.87 177.95 157.76 179.91 156.61C179.55 153.48 177.99 151.53 176.24 149.79C176.44 148.85 177.92 149.2 178.59 148.73C177.61 147.1 174.99 147.1 175.45 144.01C174.95 143.2 173.3 143.53 173.09 142.44C176.32 139.84 180.25 143.91 182.53 145.59C181.81 146.7 179.65 146.38 179.91 148.47C184.27 149.29 186.74 146.07 190.66 145.59C191.28 141.31 187.66 139.2 184.89 137.46ZM220.03 76.88C216.36 80.07 217.04 85.36 214.26 88.69C213.02 90.18 210.52 90.91 208.76 92.36C207.4 93.48 206.7 95.38 205.61 96.3C202.48 98.92 199.79 98.83 197.48 101.8C196.64 102.88 196.6 104.14 195.65 105.47C192.7 109.6 187.94 112.4 185.16 117.28C182.31 122.28 181.28 127.16 179.91 134.32C176.27 133.46 171.72 133.52 167.58 132.22C166.34 131.84 165.36 130.81 164.17 130.65C160.57 130.17 157.65 132.19 154.2 132.75C153.8 133.49 153.56 134.39 153.67 135.64C151.89 137.45 149.34 138.48 148.69 141.41C147.98 141.75 147.29 142.11 146.59 142.46C146.39 143.53 147 143.81 146.86 144.82C146.19 145.54 144.53 145.29 144.24 146.39C144.43 148.03 146.21 148.09 146.86 149.27C147.18 153.06 148.44 155.91 149.48 158.98C152.49 157.57 154.66 159.38 157.09 159.77C158.69 160.03 160.31 159.25 161.54 159.51C164.47 160.12 165.8 163.98 168.62 164.23C168.12 168.74 163.45 170.64 161.29 174.19C160.63 175.27 160.56 176.92 159.97 178.39C159.46 179.69 158.41 180.71 158.14 181.8C157.57 184.04 157.6 186.42 157.09 188.62C156.2 192.45 156.33 195.06 155.78 199.9C155.11 205.77 150.31 210.59 147.65 215.9C144.91 221.35 143.88 226.61 141.35 231.63C139.09 231.24 137.76 231 135.58 231.63C134.89 230.25 134.2 228.38 134.01 226.91C133.28 221.12 135.93 215.83 136.11 211.44C134.77 212.47 133.71 214.72 133.22 216.42C132.1 220.35 131.73 227.14 132.96 230.84C133.36 232.05 135.02 233.18 135.06 234.25C135.18 237.17 130.9 238.67 129.02 239.24C128.97 235.61 127.6 232.1 127.19 228.49C127.01 226.86 127.43 225.05 127.19 223.25C126.92 221.34 126.03 219.59 126.14 218C126.22 216.81 126.93 215.87 127.19 214.85C127.72 212.79 127.69 210.69 128.5 208.82C129.21 207.2 130.85 206.11 130.34 204.1C129.42 203.22 126.46 202.32 125.09 202.27C124.44 202.24 123.92 202.97 122.99 203.06C121.99 203.15 120.97 202.41 120.37 202.53C117.47 203.11 117.63 205.73 116.7 209.08C116.37 210.29 115.16 211.31 114.87 212.49C114.13 215.54 115.11 218.92 114.61 221.67C114.14 224.17 111.64 226.06 111.2 227.7C102.99 226.49 103.06 233.54 96.77 234.26C96.05 230.63 95.36 227.07 95.98 223.51C96.51 220.46 98.1 215.72 98.61 212.24C98.75 211.21 98.52 210.24 98.61 209.35C98.94 206.05 103.24 201.74 99.66 197.81C98.29 198.58 99.74 200.8 99.39 202.27C97.8 204.07 95.97 205.65 93.1 206.2C91.62 205.31 91.77 203.59 90.22 203.32C87.64 202.86 85.07 206.91 82.35 206.99C81.44 206.57 82.13 204.57 81.56 203.84C75.35 204.48 72.67 209.97 65.55 208.82C65.91 204.54 72.46 205.08 72.11 200.95C68.67 200.38 66.3 203.11 63.98 204.63C61.42 206.29 59.12 208.04 56.63 209.61C50.17 209.35 43.34 209.44 39.59 206.47C40.64 204.12 43.45 205.21 45.62 204.37C47.64 203.59 49.3 201.79 51.65 200.96C53.95 200.16 56.61 199.79 58.99 198.86C60.07 198.44 61.01 197.46 62.14 197.02C64.35 196.19 66.81 196.42 69.22 195.71C71.28 195.1 73.27 193.62 75.51 192.82C77.9 191.97 80.55 191.77 82.85 190.99C89.88 188.61 94.78 184.57 98.07 179.19C98.04 177.73 97.42 176.98 97.8 175.78C99.65 175.01 103.05 174.66 102 171.85C101.38 170.31 98.8 172.13 97.8 170.79C97.8 168.69 99.75 168.62 100.69 167.13C102.69 163.92 103.55 158.79 106.2 156.63C108.8 154.51 112.77 154.76 113.54 150.86C111.51 150.25 110.88 152.84 109.34 153.74C107.84 154.62 104.41 155.92 102.52 155.58C99.04 154.95 99.38 148.73 94.65 149.02C91.65 145.88 91.57 139.06 92.29 134.33C89.59 135.29 91.01 139.28 88.36 139.84C84.71 140.61 84.13 135.56 81.81 133.02C80.79 131.91 78.54 130.93 77.87 129.87C77.3 129 77.25 127.68 76.81 126.73C74.5 121.56 70.53 116.3 65.8 113.61C65.14 110.86 65.97 106.62 65.28 103.9C63.61 103.9 64.42 106.37 63.44 107.05C60.77 105.87 61.63 102.32 60.55 99.97C59.75 98.2 57.5 97.01 57.14 95.25C56.87 93.88 57.82 92.2 57.4 90.8C57.12 89.82 54.98 88.72 53.99 87.65C51.56 85.01 50.44 81.4 46.12 81.1C45.37 78.83 43.37 78.11 43.24 75.85C43.13 74.16 44.72 72.3 45.59 69.82C46.51 67.21 47.06 64.89 47.95 62.74C45.69 63.09 45.41 65.44 44.28 66.94C41.31 67.25 39 69.61 36.67 67.98C35.76 67.34 35.66 65.39 35.1 64.31C33.99 62.21 30.29 59.72 31.69 57.49C32.91 56.18 36 58.18 36.94 56.44C35.82 54.49 33.38 55.83 31.69 55.65C27.82 55.23 25.41 51.88 23.82 49.09C23.78 47.65 26.25 48.72 26.71 47.78C25.53 45.47 22.64 46.77 20.68 46.21C19.05 45.74 16.77 43.29 15.43 42.01C13.73 40.39 11.97 38.41 11.5 36.51C16.87 35.46 24.15 38.56 28.28 37.03C26.9 34.97 23.24 36.24 21.21 36.25C17.04 36.27 14.35 34.5 11.24 33.63C9.51 33.14 7.75 33.31 6.52 32.84C3.7 31.75 0.889999 29.11 -0.0300007 26.81C2.47 25.76 6.97 29.05 7.57 24.71C10.32 24.76 11.15 26.72 14.13 26.54C14.09 24.06 10.74 24.44 8.89 23.4C6.78 22.21 5.39 19.79 4.43 17.89C9.2 17.95 13.68 19.72 18.33 21.3C19.76 21.78 20.94 22.74 22.27 23.14C23.8 23.6 25.49 23.26 26.98 23.66C28.4 24.03 29.73 25.77 31.44 25.23C30.19 21.73 23.83 22.58 20.69 21.03C16.52 18.97 13.61 14.84 10.19 11.59C8.25 9.74004 5.47 8.47004 5.47 5.57004C13.04 6.13004 12.98 16.58 21.73 16.84C20.35 9.94004 13.03 7.56004 13.11 0.0400391C15.09 1.47004 18.91 5.44004 20.19 7.91004C20.93 9.32004 20.99 11.16 21.77 12.63C22.66 14.31 24.52 16.33 25.96 17.35C26.93 18.03 28.34 18.06 29.37 18.92C30.56 19.92 30.91 21.72 31.99 22.85C35.63 26.7 42.72 28.84 47.2 32.03C48.78 33.15 49.88 34.72 51.4 35.7C53.32 36.93 55.65 37.71 57.7 38.84C63.11 41.85 68.87 44.95 74.22 48.81C77.35 51.06 80.95 53.32 83.66 56.15C87.46 60.12 88.85 66.05 92.31 70.57C93.61 72.27 95.56 72.98 97.03 75.03C98.29 76.8 98.78 78.45 100.18 80.02C101.34 81.35 102.87 82.41 104.37 83.95C108.94 88.65 110.76 95.32 114.6 100.22C115.52 101.38 116.85 101.99 117.74 103.1C118.72 104.31 119.3 105.93 120.36 107.29C122.99 110.66 125.81 116.04 131.12 116.47C132.41 116.28 130.7 114.67 131.64 114.11C132.23 112.34 134.4 111.7 134.79 109.91C135.05 108.69 134.31 107.15 134.52 105.98C134.83 104.3 137.51 101.87 138.72 100.47C141.98 96.64 145.1 94.07 149.21 91.02C148.81 86.69 150.54 84.48 152.36 82.37C151.74 79.42 153.5 77.52 153.14 74.5C158.06 75.12 162.61 78.79 168.08 77.12C165.55 74.24 157.4 76.97 156.02 72.93C156.7 69.04 153.03 67.2 154.44 64.27C156.24 63.28 157.39 65.26 158.9 65.85C161.46 66.84 164.52 67.5 167.3 68.47C169.89 69.38 172.77 71.32 175.43 70.04C173.98 68.6 171.57 68.73 169.65 67.94C167.81 67.18 165.93 66.5 164.67 65.32C164.25 64.44 164.87 62.64 165.46 61.91C167.61 61.69 169.57 63.17 170.44 61.39C167.47 60.51 164.31 59.83 162.58 57.71C158.8 56.82 155.96 54.41 152.62 52.73C150.07 51.45 146.76 50.57 146.06 47.75C149.53 46.79 153.76 51.7 156.55 48.27C156.82 45.98 154.11 46.68 153.93 44.86C157 43.03 161.12 45.19 164.68 44.86C166.21 44.72 168.02 43.65 169.66 44.07C170.95 44.4 171.33 46.1 172.55 46.95C174.29 48.17 177.59 48.9 180.42 50.1C184.28 51.73 187.22 54.6 190.38 52.2C189.97 49.82 187.19 49.63 185.66 48.53C184.74 47.87 184.22 46.55 183.3 45.91C182.51 45.36 181.41 45.4 180.68 44.86C178.8 43.46 177.27 40.77 175.96 38.57C174.69 36.42 172.89 33.73 173.34 30.96C176.16 31.44 178.04 33.99 180.16 35.68C182.3 37.39 184.84 38.6 186.71 40.4C187.82 41.45 188.45 43.06 189.6 44.07C190.47 44.83 191.87 45.12 192.75 45.91C194 47.03 194.32 49.26 196.42 49.32C196.42 46.36 192.95 44.94 190.91 42.77C188.9 40.61 186.57 37.82 187.24 34.64C190.76 35.53 191.84 39.05 194.58 41.2C196.21 42.48 198.71 43.02 200.35 44.61C202.56 46.76 203.58 50.45 205.33 53.27C206.47 55.11 208.75 56.54 210.05 58.51C211.36 60.5 211.83 62.84 212.94 64.28C215.93 68.2 221.93 68.47 220.01 76.87L220.03 76.88ZM22.55 29.15C22.25 27.59 19.14 27.33 18.09 28.1C18.42 29.62 21.37 30.05 22.55 29.15ZM32.78 30.72C31.85 29.75 28.99 29.1 28.58 30.99C29.66 31.5 32.43 32.41 32.78 30.72ZM33.31 37.54C33 37.32 32.6 37.2 31.99 37.28C31.53 38.45 33.39 38.22 33.31 37.54ZM36.98 46.2C36 45.45 33.11 45.79 32.52 46.98C33.49 48.21 36.67 47.88 36.98 46.2ZM65.82 98.91C65.22 99.28 64.96 100.99 66.09 101.01C66.88 100.99 66.94 98.61 65.82 98.91ZM68.18 90.52C66.64 90.6 65.36 93.45 66.87 94.19C68.08 93.84 68.76 91.8 68.18 90.52ZM92.57 124.35C91.97 125.3 91.54 128.32 93.1 128.55C94.27 127.89 94.13 124.54 92.57 124.35ZM117.75 144.81C116.17 144.54 115.2 145.97 115.92 147.17C117.19 147.04 117.88 146.33 117.75 144.81ZM122.99 134.58C122.93 134.38 122.77 134.27 122.47 134.32C121.82 135.89 120.56 138.14 121.15 140.09C123.11 139.74 123.52 136.56 122.99 134.58ZM140.57 121.73C138.97 119.31 135.63 118.63 133.23 117.01C133.46 119.6 137.49 121.98 140.57 121.73ZM146.59 123.83C146.39 123.77 146.29 123.61 146.33 123.3C145.72 123.22 145.32 123.34 145.02 123.57C144.74 124.6 146.58 124.62 146.59 123.83ZM157.34 127.23C156.68 125.81 154.41 125.97 152.37 125.92C152.33 127.8 156.56 128.66 157.34 127.23ZM160.49 83.18C159.46 81.02 155.41 82.14 153.15 82.39C153.9 84.28 158.72 83.93 160.49 83.18ZM177.8 62.46C177.42 61.71 174.82 61.11 174.65 62.46C174.77 63.33 177.82 63.86 177.8 62.46ZM180.43 76.62C179.5 75.87 176.11 75.15 175.71 76.88C176.35 78.17 180.03 77.92 180.43 76.62ZM187.25 75.83C186.38 75.22 184.92 75.83 184.89 76.88C185.7 77.44 187.59 77.25 187.25 75.83ZM186.98 71.11C186.35 69.95 183.12 70.01 182.78 71.37C183.59 72.15 186.65 72.78 186.98 71.11ZM188.56 65.34C187.87 63.04 184.14 62.44 181.48 62.98C182.92 64.69 185.85 64.9 188.56 65.34ZM158.96 274.5L149.12 273.19C148.43 262.34 142.84 251.35 129.09 248.34C124.59 247.36 120.79 247.54 117.56 248.47C105.86 248.57 99.99 257.23 98.28 266.45L85.44 264.74L82.54 383.86L83.84 266.99L79.42 265.78L70.07 396.32L89.59 405.45L167.46 388.85L158.95 274.5H158.96ZM145.46 272.71L143.66 272.47C143.03 265.36 140.15 258.28 134 253.64C141.67 257.48 144.93 265.11 145.46 272.71ZM118.76 251.89C120.16 251.93 121.62 252.05 123.21 252.39C134.45 254.78 139.15 263.32 140 271.98L107.14 267.62C108.21 260.7 111.73 254 118.75 251.89H118.76ZM101.91 266.93C102.75 262.57 104.64 258.37 107.89 255.51C105.55 258.87 104.15 262.98 103.52 267.15L101.91 266.94V266.93ZM148.49 354.82C144.23 355.66 139.98 356.5 135.72 357.34V334.34C129.67 334.44 123.62 334.54 117.57 334.64C117.57 343.4 117.57 352.16 117.57 360.92C113.34 361.76 109.11 362.59 104.87 363.43V300.99C109.1 301.83 113.33 302.66 117.57 303.5C117.57 310.91 117.57 318.32 117.57 325.73C123.62 326 129.67 326.27 135.72 326.54V307.08C139.98 307.92 144.23 308.76 148.49 309.6V354.81V354.82Z" fill="#FFF91A"/>
</g>
<defs>
<clipPath id="clip0_49_15">
<rect width="809.44" height="405.41" fill="white" transform="translate(0 0.0400391)"/>
</clipPath>
</defs>
</svg>
