<svg width="847" height="366" viewBox="0 0 847 366" fill="none" xmlns="http://www.w3.org/2000/svg">
<g clip-path="url(#clip0_49_60)">
<path d="M451.67 292.06C450.34 291.45 449.01 290.82 447.68 290.22C445.99 289.46 444.73 288.32 443.75 286.69C441.44 282.83 439.94 278.69 439.5 274.27C439.11 270.33 437.92 266.6 437.04 262.78C436.6 260.88 436.15 259.01 435.97 257.03C435.64 253.45 434.86 249.92 433.43 246.58C433.24 246.13 432.99 245.71 432.75 245.28C432.46 244.77 431.41 244.7 431.05 245.15C429.07 247.61 428.01 250.55 426.82 253.39C425.11 257.45 423.33 261.5 422.41 265.85C419.42 272.79 418.01 280.2 416.03 287.44C415.04 291.07 414.62 291.52 410.89 292.49C410.26 292.65 409.62 292.85 408.98 292.87C403.92 293.07 398.86 293.4 393.8 292.83C390.71 292.48 387.63 292.31 384.53 292.78C384.05 292.85 383.55 292.94 383.07 292.92C380.43 292.81 378.26 291.98 377.5 289.11C377.46 288.95 377.36 288.81 377.32 288.65C375.23 280.26 371.66 272.28 370.67 263.58C370.25 259.87 369.09 256.24 368.27 252.58C367.88 250.83 367.49 249.07 367.12 247.32C366.95 246.52 366.93 245.67 366.64 244.92C365.44 241.84 365.19 238.55 364.5 235.36C363.98 232.97 363.53 230.56 363.1 228.15C362.64 225.59 362.08 223.07 361.91 220.43C361.67 216.7 360.85 212.99 360.07 209.31C359.25 205.49 359.01 201.54 357.64 197.83C357.47 197.38 357.38 196.87 357.37 196.39C357.32 191.75 356.01 187.35 354.83 182.93C354.18 180.51 354.22 178.07 354.55 175.63C354.89 173.1 356.54 171.52 359.07 171.21C359.88 171.11 360.7 171.14 361.52 171.11C369.22 170.87 376.88 171.39 384.51 172.35C385.82 172.52 386.68 173.27 387.09 174.34C387.85 176.31 388.42 178.36 388.98 180.4C389.24 181.34 389.34 182.33 389.43 183.3C390.01 189.85 392.29 196.04 393.4 202.48C394.12 206.66 395.06 210.81 395.92 214.97C396.09 215.77 396.3 216.56 396.57 217.33C397.66 220.41 398.76 223.49 399.9 226.56C399.98 226.78 400.39 227.05 400.56 227.01C400.81 226.94 401.01 226.62 401.2 226.37C401.3 226.25 401.33 226.07 401.37 225.91C403.07 220.11 404.77 214.31 406.46 208.51C406.91 206.95 407.31 205.36 407.75 203.79C408.23 202.06 408.67 200.31 409.24 198.61C410.42 195.05 411.77 191.54 412.83 187.94C413.47 185.76 413.89 183.47 414.06 181.2C414.24 178.83 415.2 176.81 416.14 174.72C417.36 172.02 419.28 170.56 422.33 171.22C423.82 171.54 425.24 171.32 426.7 171.22C428.82 171.07 430.96 170.98 433.04 171.54C434.82 172.02 436.6 171.98 438.39 171.67C439.2 171.53 440.02 171.46 440.81 171.28C443.13 170.76 444.97 171.65 446.58 173.21C447.54 174.15 448.13 175.21 448.16 176.65C448.25 180.75 448.78 184.83 449.97 188.73C451.25 192.94 452.28 197.23 453.99 201.32C454.93 203.58 455.66 205.93 456.39 208.27C457.51 211.86 458.92 215.3 460.5 218.72C462.19 222.38 463.96 226.14 463.55 230.42C463.5 230.97 463.92 231.58 464.16 232.14C464.19 232.21 464.57 232.25 464.61 232.19C464.87 231.79 465.2 231.38 465.3 230.93C465.96 227.9 466.55 224.86 467.21 221.83C467.66 219.76 468.21 217.71 468.67 215.64C469.13 213.57 469.55 211.48 469.99 209.41C470.43 207.33 470.69 205.19 471.37 203.19C473.06 198.23 473.77 193.03 475.17 188C475.56 186.59 475.89 185.13 476.49 183.8C477.58 181.39 478.3 178.9 478.8 176.32C478.92 175.68 479.02 175.02 479.28 174.44C479.7 173.54 480.31 172.76 481.38 172.55C483.63 172.11 485.86 171.62 488.13 171.3C489.24 171.14 490.43 171.16 491.54 171.37C495.76 172.2 499.99 172.15 504.24 171.71C505.05 171.63 505.89 171.69 506.68 171.53C508.44 171.18 510.6 173.2 510.69 175.05C510.75 176.35 510.77 177.68 510.57 178.96C510.02 182.34 509.66 185.8 508.65 189.04C506.98 194.38 506.05 199.84 505.2 205.33C504.6 209.21 503.9 213.06 502.73 216.82C502.34 218.06 502.11 219.36 501.87 220.65C501.01 225.31 500.16 229.97 499.33 234.63C499.13 235.75 499.11 236.91 498.92 238.03C498.58 239.96 498.4 241.97 497.71 243.77C496.76 246.25 496.38 248.83 495.9 251.39C494.61 258.29 493.32 265.2 492.3 272.14C491.65 276.53 490.42 280.75 489.38 285.03C488.73 287.73 486.77 289.06 484.8 290.5C484.43 290.77 483.88 290.83 483.4 290.87C482.26 290.96 481.11 291 479.97 291.02C474.09 291.11 468.22 291.47 462.33 291.3C460.39 291.24 458.42 291.52 456.5 291.86C454.86 292.15 453.25 292.18 451.62 291.98L451.68 292.03L451.67 292.06ZM153.84 171.36C152.78 171.4 152.05 171.96 151.68 173.03C150.94 175.19 150.76 177.53 149.58 179.55C149.42 179.82 149.3 180.17 149.3 180.48C149.3 182.6 149.07 184.76 149.42 186.82C150.3 192.04 150.09 197.25 149.72 202.47C149.64 203.61 149.48 204.77 149.62 205.89C150.01 208.99 149.77 212.1 149.79 215.2C149.82 221.24 149.5 227.29 150.47 233.3C150.62 234.25 150.6 235.28 150.41 236.22C150.05 238.02 150.13 239.76 150.39 241.57C150.67 243.5 150.72 245.48 150.77 247.44C150.9 252.34 150.92 257.23 151.73 262.1C152.03 263.89 152.4 265.61 153.12 267.28C154.54 270.58 156.03 273.87 157.23 277.25C157.93 279.2 159.02 280.69 160.62 281.91C162.57 283.4 164.47 284.95 166.4 286.46C168.07 287.77 169.76 289.06 171.45 290.36C172.78 291.39 174.25 291.97 175.98 291.95C178.45 291.92 180.84 292.43 183.23 293.01C185.13 293.47 187.08 293.75 189.02 293.97C194.21 294.55 199 292.69 203.89 291.44C205.58 290.35 207.53 290.02 209.45 289.62C211.08 289.28 212.49 288.54 213.89 287.65C219.22 284.27 222.65 279.43 224.86 273.63C225.44 272.11 225.95 270.55 226.48 269.01C227.01 267.45 227.47 265.92 226.92 264.23C226.67 263.48 226.66 262.61 226.71 261.8C226.91 258.55 226.79 255.25 227.89 252.1C228.15 251.34 228.32 250.5 228.33 249.7C228.35 246.11 228.31 242.51 228.27 238.92C228.27 238.11 228.09 237.29 228.14 236.49C228.34 232.9 228.27 229.26 228.91 225.74C229.71 221.34 229.66 216.95 229.54 212.55C229.39 207 230.89 201.5 230.06 195.93C230.39 191.53 230.93 187.14 231 182.74C231.06 178.97 230.53 175.2 227.19 172.61C226.46 171.13 225.09 171.23 223.79 171.3C222.49 171.37 221.13 171.9 219.92 171.64C216.18 170.82 212.4 171.54 208.67 171.16C207.45 171.03 206.43 171.51 205.54 172.3C204.68 173.06 203.84 173.84 202.98 174.59C202.37 175.13 201.66 175.58 201.12 176.18C199.77 177.68 198.79 179.32 199.35 181.51C199.55 182.29 199.67 183.17 199.51 183.94C198.92 186.69 199.14 189.46 199.06 192.23C199 194.51 198.76 196.82 198.29 199.05C197.67 201.95 197.15 204.78 197.84 207.76C198.13 209.01 197.97 210.37 197.96 211.67C197.94 216.24 197.82 220.82 197.89 225.39C197.95 229.79 197.19 234.17 197.71 238.58C197.86 239.88 197.88 241.19 197.97 242.5C198.09 244.32 197.98 246.1 197.21 247.78C196.38 249.59 195.98 251.49 195.79 253.46C195.73 254.08 195.49 254.75 195.15 255.27C194.34 256.5 193.46 257.68 192.54 258.83C191.77 259.79 190.7 260.16 189.48 259.97C189 259.9 188.52 259.75 188.04 259.68C186.65 259.49 185.59 258.83 184.95 257.55C182.37 252.32 178.63 247.55 178.67 241.3C178.67 241.14 178.61 240.98 178.56 240.82C177.78 238.79 177.75 236.65 177.72 234.53C177.66 230.62 177.27 226.7 178.02 222.8C178.17 222.02 178 221.18 178 220.37C178 219.39 177.84 218.39 178.03 217.45C178.79 213.54 178.51 209.66 178.04 205.75C177.93 204.8 177.87 203.74 178.16 202.85C179.11 199.87 179.42 196.78 179.85 193.71C180.29 190.63 180.7 187.55 180.48 184.43C180.34 182.43 180.59 180.52 181.4 178.68C183.09 174.82 181.57 173.99 178.66 172.74C177.32 172.16 175.91 171.54 174.49 171.41C171.07 171.12 167.63 171.11 165.71 171.04C160.77 171.16 157.34 171.23 153.91 171.35L153.84 171.36ZM576.6 292.36C580.35 292.26 584.1 292.17 587.86 292.07C588.51 292.05 589.17 292.03 589.82 291.94C592.1 291.63 593.72 290.55 594.45 288.23C595.03 286.37 595.61 284.45 596.56 282.78C598.85 278.77 599.37 274.15 601.02 269.93C601.36 269.07 600.92 267.77 600.15 267.28C597.8 265.76 595.5 264.25 592.49 264.36C586.29 264.59 580.05 264.14 573.9 265.19C573.1 265.33 572.27 265.31 571.46 265.32C568.35 265.35 565.25 265.39 562.14 265.38C561.33 265.38 560.51 265.25 559.7 265.12C558.67 264.96 557.89 264.18 557.88 263.11C557.83 259.52 557.86 255.92 557.87 252.33C557.87 252.17 557.9 252 557.94 251.85C558.37 249.96 559.44 248.54 561.34 248.08C565.96 246.98 570.62 246.26 575.38 247.68C577.14 248.21 578.96 248.07 580.74 247.87C583.06 247.6 585.53 245.58 585.92 243.35C586.75 238.65 586.68 233.93 585.57 229.23C585.34 228.26 584.77 227.41 583.82 226.95C581.29 225.72 578.69 224.54 575.9 224.37C571.99 224.13 568.09 223.59 564.14 223.96C560.1 224.35 559.23 223.46 559.08 219.33C558.92 214.91 558.87 210.5 558.78 206.08C558.77 205.43 558.71 204.77 558.74 204.12C558.8 202.53 559.35 201.94 561.01 201.4C562.12 201.03 563.23 200.9 564.38 201.12C567.66 201.74 570.85 201.6 574.07 200.69C575.92 200.17 577.91 200.06 579.9 200.41C581.34 200.66 582.83 200.63 584.3 200.67C587.73 200.77 591.19 200.58 594.59 201.01C596.81 201.29 598.77 201.01 600.81 200.4C602.38 199.93 603.42 199.23 603.15 197.32C603.07 196.74 603.53 196.1 603.69 195.48C604.45 192.48 605.26 189.46 605.12 186.33C604.97 182.9 604.48 179.48 604.24 176.05C604.1 174.08 602.97 173.08 601.25 172.61C600.31 172.35 599.31 172.25 598.34 172.23C592.29 172.14 586.24 172.08 580.19 172.04C575.12 172.01 570.04 171.91 564.98 172.03C559.75 172.15 554.53 171.63 549.31 171.81C548.82 171.83 548.33 171.77 547.84 171.72C541.47 171 535.09 171.23 528.72 171.06C527.93 171.04 527.07 171.18 526.35 171.49C525.38 171.9 524.17 173.03 524.69 174.62C524.94 175.4 525.24 176.2 525.25 177C525.31 179.61 525.35 182.23 525.21 184.83C524.94 189.57 524.93 194.32 525.27 199.05C525.76 205.95 524.45 212.71 524.34 219.56C524.34 219.88 524.34 220.25 524.21 220.52C522.97 223.01 523.27 225.55 523.92 228.16C524.15 229.09 524.03 230.11 524.01 231.09C523.94 233.87 523.82 236.65 523.77 239.43C523.71 242.37 523.87 245.33 523.66 248.26C523.18 254.92 522.66 261.54 523.31 268.28C523.86 273.96 523.44 279.72 523.49 285.45C523.5 287.08 523.62 288.71 523.77 290.34C523.87 291.42 524.62 292.12 525.73 292.22C528.5 292.46 531.28 292.74 534.06 292.84C537.49 292.95 540.9 292.97 544.34 292.79C549.71 292.51 555.11 292.77 560.5 292.79C561.15 292.79 561.82 292.75 562.43 292.56C564.02 292.06 565.65 292.1 567.29 292.11C570.4 292.13 573.51 292.11 576.61 292.11C576.61 292.2 576.61 292.28 576.61 292.37L576.6 292.36ZM54.75 243.87C54.95 247.69 55.12 251.51 55.35 255.33C55.45 256.99 55.59 258.66 55.85 260.31C56.62 265.28 58.17 270.08 59.86 274.84C60.14 275.63 60.42 276.47 60.92 277.13C62.85 279.69 64.59 282.41 66.87 284.68C68.57 286.37 70.49 287.69 72.78 288.39C75.97 289.36 79.16 290.21 82.47 290.29C83.61 290.32 84.82 290.29 85.89 290.66C88.8 291.68 91.69 291.75 94.63 291.42C95.59 291.31 96.6 291.32 97.57 291.47C99.58 291.77 101.48 291.84 103.09 290.41C103.54 290.01 104.24 289.79 104.86 289.69C107.32 289.27 109.27 287.86 111.41 286.76C113.63 285.62 115.17 283.88 116.93 282.25C120.73 278.73 122.81 274.29 124.08 269.26C126.53 259.55 127.99 249.64 128.51 239.54C128.69 236.07 128.59 232.55 129.08 229.14C129.64 225.21 129.48 221.22 129.88 217.28C129.99 216.14 129.88 214.96 129.79 213.8C129.62 211.65 129.09 209.52 129.28 207.34C129.36 206.41 128.97 205.37 128.63 204.43C126.64 198.88 124.36 193.44 121.48 188.26C120.5 186.49 119.46 184.73 118.23 183.13C115.53 179.6 112.5 176.41 108.22 174.92C106.5 174.32 104.74 173.83 102.97 173.43C99.91 172.73 96.84 172.06 93.75 171.53C90.32 170.94 86.89 170.85 83.53 171.62C81.96 171.98 80.36 172.25 78.77 172.55C75.23 173.21 71.94 174.45 68.98 176.47C68.03 177.12 67.3 177.93 66.74 178.94C64.85 182.32 62.98 185.73 60.98 189.05C59.71 191.16 58.81 193.38 58.32 195.82C57.51 199.84 56.8 203.89 55.86 207.88C54.8 212.37 54.29 216.94 54.2 221.57C54.16 223.72 54.11 225.86 54.01 228C53.9 230.3 53.68 232.61 54.26 234.95C54.46 235.74 54.36 236.6 54.37 237.43C54.41 239.58 54.43 241.73 54.46 243.89C54.55 243.89 54.65 243.89 54.74 243.89L54.75 243.87ZM103.36 242.65C103.33 242.81 103.26 242.97 103.27 243.13C103.5 247.03 102.12 250.58 101.45 254.28C101.04 256.53 100.31 258.71 99.6 260.88C99.08 262.49 97.98 263.7 96.43 264.34C95.71 264.64 94.83 264.94 94.11 264.77C91.37 264.12 88.69 263.23 86.56 261.08C85.8 260.32 85.31 259.49 85.24 258.45C85.04 255.45 84.72 252.47 83.76 249.57C83.16 242.28 82.02 234.99 83.37 227.76C83.79 225.51 84.23 223.18 84.1 220.89C83.9 217.44 85 214.39 85.78 211.23C86.01 210.3 86.4 209.28 87.04 208.65C88.88 206.87 90.85 205.22 92.86 203.63C93.46 203.15 94.3 202.88 95.07 202.75C98.52 202.17 100.77 203.55 102 207.01C102.79 209.24 103.31 211.52 103.4 213.88C103.53 217.37 103.75 220.86 103.93 224.35C104.08 230.47 104.4 236.63 103.37 242.65H103.36ZM784.02 203.18C787.75 202.34 790.53 200.38 791.75 196.5C792.35 194.58 792.71 192.66 792.42 190.71C791.97 187.64 791.47 184.56 790.65 181.58C790.1 179.56 789.05 177.66 788.1 175.77C787.33 174.23 785.97 173.18 784.3 172.91C781.08 172.4 777.91 171.57 774.61 171.6C769.05 171.65 763.49 171.56 757.93 171.53C755.97 171.52 753.97 171.76 752.05 171.46C746.67 170.62 741.28 171.38 735.9 171.14C731.01 170.92 726.09 171.14 721.19 171.17C718.57 171.19 715.94 171.04 713.35 171.32C709.95 171.69 706.61 172.34 703.17 171.52C701.9 171.22 700.51 171.73 699.64 172.84C697.62 175.46 695.93 178.25 695.98 181.72C696.02 184.5 696.22 187.28 696.19 190.05C696.15 194.05 698.04 197.27 700.17 200.4C700.92 201.51 702.01 202.49 703.29 202.64C705.88 202.94 708.3 203.97 710.99 203.95C714.73 203.92 718.51 203.99 722.2 204.87C723.2 205.11 724.09 205.35 724.57 206.35C724.99 207.2 725.71 207.4 726.6 207.34C727.55 207.28 728.18 207.87 728.38 208.7C728.87 210.76 729.31 212.84 729.62 214.94C729.88 216.7 730.22 218.53 729.99 220.25C729.39 224.79 729.66 229.39 728.78 233.9C728.6 234.85 728.75 235.86 728.74 236.84C728.74 238.31 728.62 239.79 728.74 241.25C729.15 246.63 728.15 252.03 729.16 257.39C729.28 258.02 729.27 258.71 729.17 259.34C728.36 264.54 728.63 269.78 728.41 275.01C728.35 276.47 728.26 277.96 727.92 279.37C727.15 282.59 727.16 285.84 727.27 289.1C727.32 290.68 728.31 291.93 729.83 292.28C732.85 292.98 735.86 293.82 738.92 294.22C743.21 294.78 747.4 294.31 751.17 291.86C752.26 291.15 753.44 290.58 754.61 290C757.25 288.68 758.57 286.53 758.18 283.64C757.92 281.66 758.08 279.74 758.28 277.8C758.35 277.15 758.35 276.49 758.36 275.84C758.42 270.62 758.39 265.4 759.11 260.22C759.18 259.74 759.19 259.24 759.17 258.75C759.1 256.78 759.31 254.84 759.73 252.91C759.9 252.12 760.04 251.29 760.01 250.49C759.71 243.79 760.62 237.09 759.92 230.4C759.87 229.91 759.78 229.4 759.88 228.93C760.79 224.68 760.11 220.46 759.71 216.24C759.62 215.28 759.54 214.27 759.71 213.34C760.09 211.25 760.68 209.21 761.1 207.13C761.49 205.21 762.79 204.45 764.55 204.22C765.84 204.05 767.15 203.96 768.43 203.72C769.89 203.45 771.3 203.28 772.8 203.54C774.07 203.76 775.4 203.58 776.04 203.58C779.19 204.11 781.62 203.7 784.01 203.16L784.02 203.18ZM335.45 203.18C339.18 202.34 341.96 200.38 343.18 196.5C343.78 194.58 344.14 192.66 343.85 190.71C343.4 187.64 342.9 184.56 342.08 181.58C341.53 179.56 340.48 177.66 339.53 175.77C338.76 174.23 337.4 173.18 335.73 172.91C332.51 172.4 329.34 171.57 326.04 171.6C320.48 171.65 314.92 171.56 309.36 171.53C307.4 171.52 305.4 171.76 303.48 171.46C298.1 170.62 292.71 171.38 287.33 171.14C282.44 170.92 277.52 171.14 272.62 171.17C270 171.19 267.37 171.04 264.78 171.32C261.38 171.69 258.04 172.34 254.6 171.52C253.33 171.22 251.94 171.73 251.07 172.84C249.05 175.46 247.36 178.25 247.41 181.72C247.45 184.5 247.65 187.28 247.62 190.05C247.58 194.05 249.47 197.27 251.6 200.4C252.35 201.51 253.44 202.49 254.72 202.64C257.31 202.94 259.73 203.97 262.42 203.95C266.16 203.92 269.94 203.99 273.63 204.87C274.63 205.11 275.52 205.35 276 206.35C276.42 207.2 277.14 207.4 278.03 207.34C278.98 207.28 279.61 207.87 279.81 208.7C280.3 210.76 280.74 212.84 281.05 214.94C281.31 216.7 281.65 218.53 281.42 220.25C280.82 224.79 281.09 229.39 280.21 233.9C280.03 234.85 280.18 235.86 280.17 236.84C280.17 238.31 280.05 239.79 280.17 241.25C280.58 246.63 279.58 252.03 280.59 257.39C280.71 258.02 280.7 258.71 280.6 259.34C279.79 264.54 280.06 269.78 279.84 275.01C279.78 276.47 279.69 277.96 279.35 279.37C278.58 282.59 278.59 285.84 278.7 289.1C278.75 290.68 279.74 291.93 281.26 292.28C284.28 292.98 287.29 293.82 290.35 294.22C294.64 294.78 298.83 294.31 302.6 291.86C303.69 291.15 304.87 290.58 306.04 290C308.68 288.68 310 286.53 309.61 283.64C309.35 281.66 309.51 279.74 309.71 277.8C309.78 277.15 309.78 276.49 309.79 275.84C309.85 270.62 309.82 265.4 310.54 260.22C310.61 259.74 310.62 259.24 310.6 258.75C310.53 256.78 310.74 254.84 311.16 252.91C311.33 252.12 311.47 251.29 311.44 250.49C311.14 243.79 312.05 237.09 311.35 230.4C311.3 229.91 311.21 229.4 311.31 228.93C312.22 224.68 311.54 220.46 311.14 216.24C311.05 215.28 310.97 214.27 311.14 213.34C311.52 211.25 312.11 209.21 312.53 207.13C312.92 205.21 314.22 204.45 315.98 204.22C317.27 204.05 318.58 203.96 319.86 203.72C321.32 203.45 322.73 203.28 324.23 203.54C325.5 203.76 326.83 203.58 327.47 203.58C330.62 204.11 333.05 203.7 335.44 203.16L335.45 203.18ZM645.1 171.87C642.08 173.01 639.04 174.08 636.02 175.23C635.43 175.45 634.94 175.92 634.4 176.26C631.21 178.29 628.94 181.12 626.95 184.32C624.81 187.76 623.98 191.38 624.31 195.44C624.49 197.72 624.54 200.03 624.36 202.29C623.84 208.53 625.5 214.26 628.52 219.76C629.81 222.12 631.64 224.01 633.42 225.99C636.55 229.48 639.93 232.64 643.64 235.48C647.73 238.61 651.69 241.91 655.78 245.04C657.58 246.42 658.81 248.11 659.52 250.19C660.8 253.94 659.86 257.28 657.88 260.4C657.64 260.78 657.19 261.09 656.77 261.29C654.19 262.49 651.41 262.89 648.66 262.06C644.53 260.81 640.56 259.06 637.79 255.45C636.68 254.01 635.75 252.44 634.77 250.91C634.42 250.36 634.22 249.7 633.87 249.15C633.19 248.1 631.52 247.4 630.39 247.84C629.35 248.24 628.22 248.68 627.48 249.44C625.69 251.26 623.87 253.09 622.61 255.39C620.9 258.49 619.02 261.48 617.26 264.55C616.78 265.38 616.43 266.29 616.07 267.19C615.77 267.94 615.66 268.7 615.89 269.56C616.18 270.67 616.29 271.82 616.46 272.95C616.74 274.83 617.62 276.36 619.09 277.6C620.11 278.45 621.1 279.33 622.11 280.2C624.38 282.14 626.58 284.19 628.96 286C632.56 288.73 636.49 290.96 640.86 291.99C646.31 293.27 651.87 293.96 657.44 294C659.87 294.02 662.28 293.4 664.72 293.31C667.14 293.22 669.12 292.33 670.92 290.9C672.68 289.5 674.45 288.11 676.16 286.66C678.39 284.78 680.17 282.58 681.41 279.87C682.96 276.49 684.4 273.1 685.55 269.55C686.62 266.26 687.1 262.94 686.97 259.48C686.89 257.52 686.73 255.55 686.81 253.6C686.91 251.22 686.25 249.08 685.16 246.98C683.95 244.63 682.86 242.21 681.67 239.84C681.23 238.96 680.66 238.13 680.14 237.28C679.62 236.43 678.92 235.65 678.58 234.74C677.46 231.81 675.27 229.81 672.89 227.96C666.46 222.97 660.02 217.98 653.55 213.03C652.43 212.17 651.8 211.11 651.29 209.85C650.54 207.97 651.11 206.3 651.74 204.64C652.44 202.8 653.86 201.89 655.83 201.77C658.21 201.63 660.32 202.4 662.34 203.71C663.99 204.78 664.96 206.21 665.39 208.06C665.46 208.37 665.61 208.69 665.78 208.97C666.35 209.85 667.15 210.51 668.17 210.58C671.71 210.83 674.98 210.15 677.68 207.77C680.63 205.17 682.55 201.95 684.12 198.31C685.68 194.69 685.56 191.46 683.67 188.01C683.1 186.98 682.53 186.01 681.63 185.23C680.88 184.58 680.04 183.96 679.48 183.17C678.29 181.49 676.74 180.33 675.01 179.28C672.03 177.47 669.16 175.49 666.19 173.67C665.07 172.99 663.83 172.3 662.58 172.12C659.35 171.65 656.12 170.79 652.82 171.12C650.24 171.34 647.58 170.92 645.08 171.86L645.1 171.87Z" fill="#FF5C4D"/>
<path d="M246.98 347.45C245.9 346.75 244.71 346.22 243.39 345.85C242.07 345.48 240.76 345.16 239.44 344.9C237.98 344.6 236.61 344.29 235.33 343.95C234.06 343.61 233.02 343.09 232.23 342.38C231.44 341.67 231.05 340.64 231.05 339.3V339.28C231.05 337.49 231.73 336.1 233.09 335.12C234.45 334.14 236.35 333.65 238.8 333.65C240.17 333.65 241.53 333.9 242.88 334.39C244.24 334.88 245.6 335.64 246.96 336.66L249.82 332.66C248.08 331.39 246.28 330.45 244.44 329.83C242.6 329.21 240.71 328.9 238.79 328.9C234.74 328.9 231.61 329.82 229.39 331.65C227.17 333.48 226.06 336.07 226.06 339.41V339.43C226.06 341.52 226.41 343.19 227.11 344.44C227.81 345.69 228.73 346.65 229.89 347.31C231.04 347.98 232.3 348.47 233.68 348.78C235.05 349.09 236.42 349.36 237.76 349.59C239.16 349.82 240.45 350.11 241.62 350.47C242.8 350.82 243.75 351.36 244.47 352.09C245.19 352.81 245.55 353.86 245.55 355.22V355.24C245.55 356.98 244.84 358.34 243.4 359.31C241.97 360.28 239.95 360.77 237.36 360.77C235.44 360.77 233.65 360.47 232.01 359.88C230.36 359.29 228.86 358.4 227.49 357.22L224.36 361.07C225.53 362.06 226.78 362.88 228.12 363.54C229.46 364.2 230.9 364.69 232.44 365.02C233.98 365.35 235.62 365.51 237.36 365.51C241.54 365.51 244.78 364.61 247.08 362.8C249.38 360.99 250.53 358.43 250.53 355.13V355.08C250.53 353.12 250.2 351.54 249.56 350.32C248.91 349.1 248.05 348.14 246.97 347.45H246.98Z" fill="#FF5C4D"/>
<path d="M262.88 334.07H273.02V365.16H278.05V334.07H288.19V329.28H262.88V334.07Z" fill="#FF5C4D"/>
<path d="M305.68 329.28H303.24V365.16H305.68H308.27H326.28V360.37H308.27V349.74H323.57V344.95H308.27V334.07H326.28V329.28H308.27H305.68Z" fill="#FF5C4D"/>
<path d="M353.32 329.28L340.09 365.16H345.52L348.22 357.29H362.7L365.4 365.16H370.83L357.6 329.28H353.31H353.32ZM349.87 352.5L355.47 336.21L361.06 352.5H349.87Z" fill="#FF5C4D"/>
<path d="M412.35 329.28H406.16L391.4 348.04V329.28H386.37V365.16H391.4V354.75L397.25 347.63L407.69 365.16H413.86L400.83 343.29L412.35 329.28Z" fill="#FF5C4D"/>
<path d="M449.77 345.1H434.42V329.28H429.39V365.16H434.42V349.88H449.77V365.16H454.81V329.28H449.77V345.1Z" fill="#FF5C4D"/>
<path d="M492.3 330.55C490.41 329.46 488.2 328.91 485.66 328.91C483.12 328.91 480.91 329.46 479.02 330.55C477.13 331.64 475.66 333.18 474.61 335.16C473.57 337.14 473.04 339.47 473.04 342.13V352.3C473.04 354.95 473.56 357.27 474.61 359.26C475.65 361.25 477.12 362.79 479.02 363.89C480.91 364.98 483.12 365.53 485.66 365.53C488.2 365.53 490.41 364.98 492.3 363.89C494.19 362.8 495.66 361.25 496.7 359.26C497.74 357.27 498.27 354.95 498.27 352.3V342.13C498.27 339.46 497.75 337.14 496.7 335.16C495.66 333.18 494.19 331.64 492.3 330.55ZM493.12 352.47C493.12 354.9 492.44 356.86 491.08 358.34C489.72 359.82 487.92 360.56 485.66 360.56C483.4 360.56 481.62 359.82 480.26 358.34C478.9 356.86 478.21 354.9 478.21 352.47V341.96C478.21 339.51 478.89 337.55 480.26 336.08C481.63 334.61 483.43 333.87 485.66 333.87C487.89 333.87 489.72 334.61 491.08 336.08C492.44 337.55 493.12 339.51 493.12 341.96V352.47Z" fill="#FF5C4D"/>
<path d="M535.23 352.35C535.23 354.97 534.57 356.99 533.24 358.42C531.91 359.85 530.04 360.57 527.63 360.57C525.22 360.57 523.37 359.85 522.05 358.42C520.73 356.99 520.08 354.97 520.08 352.35V329.28H515.05V352.18C515.05 356.42 516.15 359.71 518.34 362.04C520.54 364.37 523.63 365.53 527.63 365.53C531.63 365.53 534.75 364.37 536.96 362.04C539.16 359.71 540.27 356.43 540.27 352.18V329.28H535.24V352.35H535.23Z" fill="#FF5C4D"/>
<path d="M578.16 347.45C577.08 346.75 575.89 346.22 574.57 345.85C573.25 345.48 571.94 345.16 570.62 344.9C569.16 344.6 567.79 344.29 566.51 343.95C565.24 343.61 564.2 343.09 563.41 342.38C562.62 341.67 562.23 340.64 562.23 339.3V339.28C562.23 337.49 562.91 336.1 564.27 335.12C565.63 334.14 567.53 333.65 569.98 333.65C571.35 333.65 572.71 333.9 574.06 334.39C575.42 334.88 576.78 335.64 578.14 336.66L581 332.66C579.26 331.39 577.46 330.45 575.62 329.83C573.78 329.21 571.89 328.9 569.97 328.9C565.92 328.9 562.79 329.82 560.57 331.65C558.35 333.48 557.24 336.07 557.24 339.41V339.43C557.24 341.52 557.59 343.19 558.29 344.44C558.99 345.69 559.91 346.65 561.07 347.31C562.22 347.98 563.48 348.47 564.86 348.78C566.23 349.09 567.6 349.36 568.94 349.59C570.34 349.82 571.63 350.11 572.8 350.47C573.98 350.82 574.93 351.36 575.65 352.09C576.37 352.81 576.73 353.86 576.73 355.22V355.24C576.73 356.98 576.02 358.34 574.58 359.31C573.15 360.28 571.13 360.77 568.54 360.77C566.62 360.77 564.83 360.47 563.19 359.88C561.54 359.29 560.04 358.4 558.67 357.22L555.54 361.07C556.71 362.06 557.96 362.88 559.3 363.54C560.64 364.2 562.08 364.69 563.62 365.02C565.16 365.35 566.8 365.51 568.54 365.51C572.72 365.51 575.96 364.61 578.26 362.8C580.56 360.99 581.71 358.43 581.71 355.13V355.08C581.71 353.12 581.38 351.54 580.74 350.32C580.09 349.1 579.23 348.14 578.15 347.45H578.16Z" fill="#FF5C4D"/>
<path d="M621.54 334.07V329.28H603.53H600.94H598.5V365.16H600.94H603.53H621.54V360.37H603.53V349.74H618.83V344.95H603.53V334.07H621.54Z" fill="#FF5C4D"/>
<path d="M780.31 129.01C770.95 118.2 767.91 118.72 755.1 111.96C742.29 105.21 735.89 94.4 729 89.68C722.11 84.95 704.37 77.53 696 67.74C687.62 57.94 695.5 57.6 683.19 51.19C670.88 44.78 659.55 39.71 653.14 33.3C646.74 26.89 640.35 18.45 632.45 13.38C624.57 8.32004 620.63 17.44 618.66 22.16C616.68 26.89 611.28 26.89 600.44 28.57C589.6 30.26 594.52 37.01 590.09 42.76C585.66 48.5 574.83 47.82 568.42 53.9C563.38 58.68 555.92 62.22 549.85 66.47C542.48 62.72 536 59.36 531.97 55.33C526.9 50.25 521.83 43.55 515.57 39.54C509.33 35.53 506.19 42.76 504.64 46.5C503.07 50.25 498.79 50.25 490.19 51.58C481.6 52.92 485.5 58.27 481.99 62.83C479.64 65.88 475.01 66.66 470.68 68.29C463.97 63.77 457.92 60 454.37 55.33C451.99 52.19 449.6 48.44 447.01 45.09C447.16 47.23 447.1 50.66 445.52 53.13C443.07 56.94 451.54 55.54 450.2 58.15C449.63 59.25 450.38 59.14 451.45 58.88C451.48 62.75 450.53 68.25 452.47 71.22C452.78 71.69 443.63 79.18 440.47 82.03C435.57 86.45 436.46 92.28 445.67 84.78C448.91 82.14 451.98 79.85 454.6 77.96C455.77 77.56 457.09 77.34 458.37 77.62C460.22 80.76 457.56 85.25 459.56 91.81C461.57 98.37 457.56 96.09 461.79 101.71C466.03 107.33 467.22 112.15 470.03 116.1C472.86 120.05 465.5 115.83 469.81 121.59C473.29 126.23 473.29 131.65 473.58 133.98C475.52 132.81 477.56 131.67 479.73 130.57C483.24 128.8 487.94 125.05 494.73 119.54C498.64 116.37 502.68 113.08 504.95 111.66C511.35 107.64 514.28 105.23 518.56 100.45C519.35 99.58 519.91 98.89 520.33 98.38C520.57 98.1 520.86 97.75 520.99 97.6C521.64 97.24 524.09 96.33 527.17 95.17L528.13 94.82C537.38 91.36 542.01 85.02 546.09 79.44C547.83 77.03 549.48 74.77 551.26 73.08C553.97 70.5 557.73 68.23 561.72 65.81C566.14 63.15 570.72 60.37 574.4 56.87C576.41 54.95 579.42 53.99 582.9 52.87C587.48 51.4 593.19 49.56 596.6 45.15C598.87 42.2 599.36 39.3 599.75 36.97C599.92 35.95 600.2 34.26 600.59 33.91C600.6 33.91 600.93 33.71 602.05 33.54C603.62 33.3 605.06 33.09 606.41 32.89C614.86 31.68 622.84 30.54 625.74 23.57C626.94 20.71 627.89 18.97 628.61 17.93C628.61 17.93 630.58 25.73 626.51 30.54C622.45 35.35 636.49 33.58 634.27 36.87C633.33 38.25 634.57 38.11 636.34 37.79C636.4 42.67 634.82 49.61 638.02 53.36C638.54 53.95 623.38 63.4 618.13 67C610.01 72.57 611.49 79.92 626.76 70.47C632.13 67.15 637.21 64.25 641.56 61.88C643.49 61.37 645.68 61.1 647.81 61.45C650.88 65.41 646.46 71.07 649.78 79.34C653.1 87.61 646.46 84.74 653.47 91.83C660.49 98.92 662.47 105 667.13 109.98C671.82 114.97 659.63 109.64 666.77 116.9C673.92 124.16 672.19 133.02 673.54 133.95C673.78 134.11 674.09 134.35 674.45 134.63H542.25C534.05 132.74 529.42 125.82 537.62 119.77C547.22 112.68 552.75 110.56 559.64 105C566.53 99.43 561.65 99.84 561.89 94.95C562.14 90.05 569.19 86.33 575 79.46C587.53 64.65 570.56 72.1 567.85 74.63C565.14 77.16 556.72 88.33 552.04 91.88C547.38 95.42 531.26 101.76 528.32 104.45C525.37 107.15 530.51 109.23 518.44 116.49C509.08 122.12 501 129.56 490.22 134.62H473.65C473.71 134.86 473.77 135.05 473.87 135.13C474.01 135.26 474.2 135.45 474.42 135.67H394.66C389.72 134.17 386.92 128.68 391.87 123.89C397.66 118.27 401 116.59 405.16 112.18C409.32 107.76 406.37 108.09 406.52 104.21C406.67 100.33 410.92 97.37 414.43 91.93C421.99 80.19 411.75 86.09 410.12 88.1C408.49 90.11 403.4 98.96 400.58 101.78C397.77 104.59 388.04 109.61 386.27 111.75C384.49 113.89 387.59 115.54 380.31 121.3C374.66 125.76 369.79 131.66 363.29 135.68H352.6C353.94 134.58 355.4 133.51 356.94 132.49C359.06 131.09 361.89 128.11 365.99 123.74C368.35 121.23 370.79 118.62 372.16 117.49C376.02 114.3 377.79 112.39 380.37 108.6C380.84 107.91 381.19 107.36 381.43 106.95C381.57 106.73 381.75 106.45 381.83 106.33C382.22 106.04 383.7 105.32 385.56 104.41L386.14 104.13C391.72 101.38 394.52 96.36 396.97 91.93C398.02 90.03 399.01 88.23 400.09 86.89C401.72 84.85 403.99 83.04 406.4 81.12C409.06 79.01 411.83 76.81 414.05 74.03C415.26 72.51 417.08 71.74 419.18 70.85C421.94 69.68 425.39 68.23 427.45 64.73C428.82 62.39 429.11 60.1 429.35 58.24C429.45 57.43 429.62 56.09 429.85 55.81C429.85 55.81 430.05 55.65 430.73 55.51C431.68 55.32 432.55 55.15 433.36 55C438.46 54.04 443.27 53.13 445.02 47.61C445.5 46.1 445.91 45.02 446.26 44.2C444.87 42.47 443.42 40.86 441.86 39.55C437.11 35.54 434.73 42.77 433.54 46.51C432.35 50.26 429.09 50.26 422.55 51.59C416.01 52.93 418.98 58.28 416.31 62.84C413.64 67.39 407.1 66.85 403.24 71.67C399.37 76.49 393.14 79.7 389.29 84.52C385.42 89.34 383.34 97.37 376.81 100.58C370.28 103.79 371.77 102.99 369.39 106.47C367.01 109.95 365.53 111.55 361.96 114.5C361.34 115.01 360.56 115.77 359.72 116.6C356.06 114.56 351.86 112.84 345.34 109.4C331.33 102.03 324.34 90.21 316.81 85.04C309.27 79.87 289.89 71.76 280.74 61.06C271.58 50.35 280.19 49.98 266.74 42.97C253.28 35.96 240.9 30.43 233.9 23.41C226.9 16.4 219.91 7.17004 211.29 1.64004C202.68 -3.88996 198.37 6.07004 196.22 11.24C194.06 16.41 188.15 16.41 176.3 18.25C164.46 20.1 169.83 27.48 164.99 33.75C160.15 40.02 148.31 39.28 141.31 45.92C134.31 52.56 123.01 56.99 116.03 63.63C109.03 70.27 105.26 81.34 93.41 85.77C81.57 90.2 84.27 89.09 79.96 93.89C75.65 98.69 72.96 100.9 66.5 104.96C60.04 109.02 45.62 122.21 39.58 125.26C30.98 129.62 4.85 134.66 -0.0499992 139.66H846.35C844.41 135.6 786.03 135.69 780.25 129.02L780.31 129.01ZM528.51 88.47C527.32 89.19 526.04 89.83 524.62 90.36C517.93 92.86 516.32 93.43 515.13 94.54C514.94 92 511.43 92.53 508.27 95.11C507.32 95.89 504.54 98.17 500.58 100.46C500.44 100.33 500.31 100.16 500.17 100.03C496.01 96.28 485.31 90.39 480.26 82.64C475.88 75.9 478.86 74.8 474.88 71.31C475.35 71.15 475.83 70.99 476.33 70.83C479.96 69.66 484.49 68.21 487.19 64.71C488.99 62.37 489.37 60.08 489.69 58.22C489.82 57.41 490.05 56.07 490.35 55.79C490.35 55.79 490.62 55.63 491.51 55.49C492.75 55.3 493.9 55.13 494.97 54.98C501.67 54.02 508 53.11 510.3 47.59C511.25 45.32 512 43.94 512.58 43.12C512.58 43.12 514.14 49.3 510.92 53.12C507.7 56.93 518.83 55.53 517.07 58.14C516.33 59.24 517.31 59.13 518.71 58.87C518.75 62.74 517.5 68.24 520.04 71.21C520.45 71.68 508.43 79.17 504.27 82.02C497.83 86.44 499 92.27 511.11 84.77C515.37 82.13 519.39 79.84 522.85 77.95C524.38 77.55 526.12 77.33 527.81 77.61C529.8 80.19 527.86 83.68 528.52 88.46L528.51 88.47ZM112.79 134.12C103.83 132.05 98.76 124.49 107.73 117.88C118.22 110.13 124.27 107.82 131.8 101.73C139.34 95.64 133.99 96.09 134.26 90.75C134.53 85.39 142.24 81.33 148.59 73.82C162.28 57.63 143.74 65.77 140.78 68.54C137.82 71.31 128.61 83.52 123.5 87.4C118.4 91.27 100.78 98.2 97.57 101.14C94.34 104.09 99.96 106.37 86.77 114.3C76.54 120.45 67.71 128.58 55.93 134.12H36.57C39 132.61 41.64 131.13 44.44 129.72C48.27 127.78 53.42 123.68 60.84 117.66C65.11 114.19 69.53 110.6 72.02 109.05C79.02 104.65 82.22 102.02 86.89 96.79C87.75 95.84 88.37 95.08 88.82 94.52C89.08 94.21 89.4 93.83 89.54 93.67C90.25 93.28 92.93 92.28 96.29 91.02L97.34 90.63C107.46 86.85 112.51 79.92 116.97 73.82C118.87 71.19 120.68 68.72 122.62 66.87C125.58 64.05 129.69 61.56 134.06 58.92C138.89 56.01 143.89 52.97 147.92 49.15C150.12 47.05 153.41 46 157.21 44.77C162.22 43.16 168.46 41.15 172.19 36.33C174.67 33.11 175.2 29.94 175.63 27.39C175.81 26.28 176.12 24.43 176.54 24.05C176.55 24.05 176.91 23.83 178.14 23.64C179.85 23.37 181.43 23.14 182.9 22.94C192.13 21.62 200.86 20.37 204.03 12.75C205.34 9.62004 206.38 7.72004 207.17 6.59004C207.17 6.59004 209.32 15.12 204.88 20.37C200.44 25.63 215.78 23.69 213.36 27.29C212.33 28.8 213.69 28.65 215.62 28.29C215.68 33.63 213.96 41.21 217.46 45.31C218.03 45.96 201.45 56.29 195.72 60.21C186.85 66.3 188.46 74.33 205.15 64C211.02 60.37 216.57 57.2 221.33 54.61C223.45 54.05 225.83 53.76 228.16 54.14C231.51 58.48 226.68 64.66 230.31 73.7C233.94 82.74 226.69 79.6 234.35 87.35C242.03 95.1 244.18 101.74 249.29 107.19C254.41 112.64 241.09 106.82 248.89 114.76C256.7 122.69 254.81 132.38 256.29 133.4C256.55 133.58 256.89 133.84 257.29 134.14H112.79V134.12Z" fill="#FF5C4D"/>
<path d="M201.22 78.24C199.19 79.89 191.21 86.5 180.37 90.48C169.52 94.45 166.81 98.31 160.02 102.32C153.24 106.34 158.06 105.24 158.15 112.46C158.15 112.82 158.17 113.09 158.18 113.36C158.75 114.59 158.31 115.99 158.18 113.36C157.64 112.18 156.17 111.18 152.58 114.1C144.85 120.4 160.73 119.12 166.74 112.09C172.76 105.07 178.39 116.52 184.88 113.36C191.37 110.2 177.54 103.31 186.34 99.18C195.14 95.05 207.36 86.95 209.9 81.11C213.16 73.67 206.74 73.75 201.23 78.24H201.22Z" fill="#FF5C4D"/>
<path d="M578.7 116.28C571.63 122.04 586.16 120.87 591.65 114.44C597.15 108.02 602.31 118.5 608.25 115.6C614.19 112.71 601.53 106.4 609.58 102.63C617.64 98.8501 628.81 91.4401 631.14 86.1001C634.12 79.2901 628.25 79.3701 623.2 83.4801C621.34 84.9901 614.04 91.0401 604.12 94.6801C594.19 98.3101 591.71 101.84 585.5 105.51C579.3 109.18 583.7 108.18 583.79 114.79C583.79 115.12 583.81 115.37 583.82 115.62C584.34 116.75 583.94 118.03 583.82 115.62C583.32 114.54 581.98 113.62 578.7 116.3V116.28Z" fill="#FF5C4D"/>
<path d="M435.31 110.3C440.17 107.3 446.91 101.43 448.32 97.19C450.12 91.79 446.58 91.85 443.53 95.11C442.41 96.31 438.01 101.1 432.02 103.99C426.03 106.87 424.54 109.67 420.78 112.58C417.04 115.49 419.7 114.7 419.75 119.94C419.75 120.2 419.76 120.4 419.77 120.6C420.08 121.49 419.84 122.51 419.77 120.6C419.47 119.74 418.66 119.02 416.68 121.14C412.41 125.71 421.18 124.78 424.49 119.68C427.81 114.59 430.92 122.9 434.5 120.6C438.08 118.31 430.45 113.31 435.3 110.31L435.31 110.3Z" fill="#FF5C4D"/>
</g>
<defs>
<clipPath id="clip0_49_60">
<rect width="846.4" height="365.52" fill="white" transform="translate(0 0.0100098)"/>
</clipPath>
</defs>
</svg>
