<svg width="1134" height="496" viewBox="0 0 1134 496" fill="none" xmlns="http://www.w3.org/2000/svg">
<g clip-path="url(#clip0_49_34)">
<path d="M318.23 207.79C339.8 290.46 290.5 374.94 208.04 396.92C275.19 336.88 308.86 243.95 289.82 150.74C302.76 167.1 312.62 186.31 318.22 207.79H318.23ZM369.91 316.77C369.91 415.13 290.18 494.86 191.82 494.86C93.46 494.86 27.2 424.26 0.430001 314.55C0.140001 313.38 0.180001 312.05 0.200001 310.85L14.48 315.49C14.48 315.49 28.74 305.11 34.3 315.05C36.34 318.69 39.68 326.47 39.68 326.47C66.57 380.38 122.23 417.44 186.57 417.44C277.21 417.44 350.69 343.96 350.69 253.32C350.69 246.8 350.27 240.39 349.53 234.07C362.51 258.78 369.9 286.9 369.9 316.75L369.91 316.77ZM322.71 376.36C289.63 416.98 243.36 440.96 191.07 443.19C150.44 444.92 111.9 434.29 79.73 410.85C108.74 447.65 166.28 471.93 212.35 469.96C267.54 467.6 311 421.51 322.71 376.35V376.36ZM167.1 395.91C202.47 368.52 209.77 317.88 203.77 276.04C198.98 235.5 182.71 196 179.19 156.29C178.16 143.16 178.5 129.91 179.65 116.49C180.68 103.02 183.45 89.64 185.72 75.81C171.55 99.77 162.59 127.55 161.04 156.46C159.66 185.33 163.7 213.96 168.97 240.75C179.86 292.48 193.95 345.67 167.1 395.9V395.91ZM183.55 395.16C211.88 383.84 229.65 355.58 241.25 328.58C265.82 272.72 252.03 210.19 243.6 152.85C240.57 124.9 233.38 94.91 244.49 68.04C227.19 92.59 230.51 125.61 231.15 154.05C233.35 197.29 238.14 239.77 233.9 282.32C228.34 321.53 214.5 368.35 183.55 395.16ZM209.29 342.94C226.04 301.65 223.91 256.23 222.47 212.48C221.78 183.92 216.17 155.37 217.25 127.39C218.83 84.32 233.18 43.6 237.81 0.73999C219.44 28.76 206.78 59.99 198.86 92.44C198.16 96.2 196.18 105.52 195.54 109.2C189.15 145.05 200.58 180.05 207.95 214.25C215.54 256.59 219.52 300.66 209.3 342.95L209.29 342.94Z" fill="white" stroke="#231F20" stroke-width="0.37" stroke-miterlimit="10"/>
<path d="M483.94 271.26C487.67 269.53 490.58 266.64 492.67 262.6C494.76 258.56 495.8 253.16 495.8 246.41C495.8 240.1 494.71 235.3 492.53 232.01C490.35 228.72 487.53 226.55 484.07 225.48C480.6 224.41 476.29 223.88 471.14 223.88V287.06C471.14 293.64 471.49 298.5 472.21 301.66C472.92 304.82 474.01 306.9 475.48 307.92C476.95 308.94 479.15 309.54 482.08 309.72V311.05H449.02V309.72C451.42 309.19 453.15 308.43 454.22 307.45C455.29 306.47 456.06 304.5 456.55 301.52C457.04 298.54 457.28 293.72 457.28 287.06V244.41C457.28 237.75 457.03 232.93 456.55 229.95C456.06 226.97 455.28 225 454.22 224.02C453.15 223.04 451.42 222.29 449.02 221.75V220.42H475.54C486.65 220.42 495.24 222.24 501.33 225.88C507.42 229.52 510.46 236.06 510.46 245.47C510.46 256.76 506.95 264.86 499.93 269.8C492.91 274.73 482.96 277.2 470.07 277.2L470.34 273.87C475.67 273.87 480.2 273 483.94 271.27V271.26Z" fill="white"/>
<path d="M515.26 311.05V309.72C517.21 309.37 518.68 308.72 519.66 307.79C520.64 306.86 521.35 305.08 521.79 302.46C522.23 299.84 522.46 295.82 522.46 290.4V237.22C522.46 233.04 522.26 229.96 521.86 227.96C521.46 225.96 520.77 224.56 519.79 223.76C518.81 222.96 517.3 222.43 515.26 222.16V220.83C518.19 220.83 521.5 220.43 525.19 219.63C528.88 218.83 532.1 217.81 534.85 216.56H535.52V290.4C535.52 295.82 535.74 299.84 536.19 302.46C536.63 305.08 537.34 306.86 538.32 307.79C539.3 308.72 540.76 309.37 542.72 309.72V311.05H515.26ZM547.25 311.05V309.72C549.2 309.37 550.67 308.72 551.65 307.79C552.63 306.86 553.34 305.08 553.78 302.46C554.22 299.84 554.45 295.82 554.45 290.4V263.21C554.45 258.68 553.74 255.5 552.32 253.68C550.9 251.86 548.45 250.95 544.99 250.95C543.03 250.95 541.12 251.28 539.26 251.95C537.39 252.62 535.61 253.48 533.93 254.55L533.4 251.88C536.78 249.21 540.4 247.08 544.26 245.48C548.13 243.88 551.66 243.08 554.86 243.08C559.13 243.08 562.3 244.33 564.39 246.81C566.48 249.3 567.52 253.43 567.52 259.21V290.4C567.52 295.82 567.74 299.84 568.19 302.46C568.63 305.08 569.34 306.86 570.32 307.79C571.3 308.72 572.76 309.37 574.72 309.72V311.05H547.26H547.25Z" fill="white"/>
<path d="M587.43 303.32C583.3 296.92 581.23 288.7 581.23 278.66C581.23 268.62 583.43 259.73 587.83 253.07C592.23 246.41 599.09 243.07 608.42 243.07C617.75 243.07 625.17 246.31 629.35 252.8C633.53 259.29 635.61 267.55 635.61 277.59C635.61 287.63 633.41 296.36 629.01 302.98C624.61 309.6 617.75 312.91 608.42 312.91C598.56 312.91 591.56 309.71 587.43 303.31V303.32ZM615.56 307.05C617.38 305.18 618.8 301.92 619.83 297.25C620.85 292.58 621.36 286.21 621.36 278.12C621.36 267.64 620.25 259.68 618.03 254.26C615.81 248.84 612.52 246.13 608.17 246.13C605.41 246.13 603.13 247.09 601.31 249C599.49 250.91 598.07 254.22 597.04 258.93C596.02 263.64 595.51 270.04 595.51 278.12C595.51 288.61 596.62 296.51 598.84 301.85C601.06 307.18 604.35 309.85 608.7 309.85C611.45 309.85 613.74 308.92 615.56 307.05Z" fill="white"/>
<path d="M655.94 308.45C652.07 305.47 649.23 301.41 647.41 296.25C645.59 291.1 644.68 285.14 644.68 278.39C644.68 271.99 645.63 266.11 647.55 260.73C649.46 255.35 652.35 251.07 656.21 247.87C660.08 244.67 664.89 243.07 670.67 243.07C678.58 243.07 684.24 245.72 687.66 251C691.08 256.29 692.79 263.82 692.79 273.59H653.74L653.87 270.92H678.66C678.48 264.34 678.1 259.24 677.53 255.59C676.95 251.95 676.04 249.35 674.8 247.79C673.55 246.24 671.87 245.46 669.74 245.46C667.61 245.46 665.92 246.31 664.41 247.99C662.9 249.68 661.68 252.5 660.74 256.45C659.81 260.41 659.29 265.63 659.21 272.11L658.94 272.91V275.44C658.94 283.79 660.09 290.21 662.41 294.7C664.72 299.19 668.94 301.43 675.07 301.43C678.62 301.43 681.76 300.65 684.47 299.1C687.18 297.55 689.47 294.95 691.33 291.3L692.53 291.57C691.55 298.68 689.18 304.01 685.4 307.57C681.62 311.12 676.71 312.9 670.67 312.9C664.63 312.9 659.81 311.41 655.94 308.43V308.45Z" fill="white"/>
<path d="M700 311.05V309.72C701.78 309.37 703.18 308.61 704.2 307.45C705.22 306.3 705.98 304.58 706.47 302.32C706.96 300.05 707.2 297.05 707.2 293.32V265.33C707.2 261.15 707 257.96 706.6 255.73C706.2 253.51 705.49 251.89 704.47 250.86C703.45 249.84 701.96 249.19 700.01 248.93V247.6C702.76 247.6 706.1 247.11 710.01 246.13C713.92 245.15 716.98 244.13 719.21 243.06H720.01L719.74 251.06L720.27 252.66V293.31C720.27 297.4 720.4 300.51 720.67 302.64C720.94 304.77 721.47 306.4 722.27 307.51C723.07 308.62 724.31 309.36 726 309.71V311.04H700.01L700 311.05ZM733.45 311.05V309.72C735.14 309.37 736.38 308.63 737.18 307.52C737.98 306.41 738.51 304.79 738.78 302.65C739.05 300.52 739.18 297.41 739.18 293.32V262.13C739.18 257.69 738.49 254.71 737.11 253.2C735.73 251.69 733.27 250.93 729.71 250.93C725.98 250.93 722.29 252.13 718.65 254.53L718.12 251.86C721.5 249.19 725.12 247.06 728.98 245.46C732.85 243.86 736.38 243.06 739.58 243.06C743.85 243.06 747.02 244.31 749.11 246.79C751.2 249.28 752.24 253.41 752.24 259.19V293.31C752.24 297.04 752.48 300.04 752.97 302.31C753.46 304.58 754.21 306.29 755.24 307.44C756.26 308.6 757.66 309.35 759.44 309.71V311.04H733.45V311.05Z" fill="white"/>
<path d="M785.17 302.45C785.61 305.07 786.32 306.85 787.3 307.78C788.28 308.71 789.74 309.36 791.7 309.71V311.04H764.24V309.71C766.19 309.36 767.66 308.71 768.64 307.78C769.62 306.85 770.33 305.07 770.77 302.45C771.21 299.83 771.44 295.81 771.44 290.39V265.33C771.44 261.06 771.24 257.85 770.84 255.67C770.44 253.49 769.75 251.89 768.77 250.87C767.79 249.85 766.28 249.2 764.24 248.94V247.61C766.99 247.61 770.37 247.12 774.37 246.14C778.37 245.16 781.52 244.14 783.83 243.07H784.5V290.39C784.5 295.81 784.72 299.83 785.17 302.45ZM771.11 236.94C769.38 235.25 768.51 233.12 768.51 230.54C768.51 227.96 769.38 225.94 771.11 224.21C772.84 222.48 775 221.61 777.57 221.61C780.14 221.61 782.19 222.48 783.97 224.21C785.75 225.94 786.64 228.05 786.64 230.54C786.64 233.03 785.77 235.14 784.04 236.87C782.31 238.6 780.15 239.47 777.58 239.47C775.01 239.47 772.85 238.63 771.12 236.94H771.11Z" fill="white"/>
<path d="M794.36 311.05V309.58C795.96 308.96 797.67 307.45 799.49 305.05C801.31 302.65 804.53 297.59 809.15 289.85L822.48 267.59L819.15 280.52L815.55 287.72C812.26 294.3 810.62 299.32 810.62 302.78C810.62 304.38 810.95 305.78 811.62 306.98C812.29 308.18 813.29 309.09 814.62 309.71V311.04H794.36V311.05ZM823.42 311.05V309.72C825.02 309.63 826.22 309.23 827.02 308.52C827.82 307.81 828.22 306.83 828.22 305.59C828.22 304.35 827.86 302.9 827.15 301.26C826.44 299.62 825.28 297.24 823.68 294.13L808.49 265.47C805.91 260.67 803.89 257.07 802.43 254.67C800.96 252.27 799.7 250.52 798.63 249.41C797.56 248.3 796.32 247.26 794.9 246.28V244.95H821.42V246.28C820.44 246.28 819.64 246.59 819.02 247.21C818.4 247.83 818.09 248.72 818.09 249.88C818.09 251.13 818.47 252.7 819.22 254.61C819.97 256.52 821.06 258.81 822.49 261.47L837.95 290.53C840.97 296.22 843.21 300.31 844.68 302.79C846.15 305.28 847.32 306.99 848.21 307.92C849.1 308.85 850.08 309.45 851.14 309.72V311.05H823.42ZM822.22 282.79L823.95 274.66L829.68 263.2C831.72 258.93 832.75 255.38 832.75 252.54C832.75 249.16 831.46 247.07 828.88 246.28V244.95H849.81V246.28C847.85 247.08 845.81 248.68 843.68 251.08C841.55 253.48 838.26 258.1 833.82 264.94L822.22 282.8V282.79Z" fill="white"/>
<path d="M925.45 283.52C923.8 280.81 921.56 278.59 918.72 276.86C915.88 275.13 912.23 273.46 907.79 271.86C902.9 270.08 898.86 268.26 895.66 266.4C892.46 264.53 889.8 261.85 887.66 258.34C885.53 254.83 884.46 250.23 884.46 244.54C884.46 239.56 885.64 235.14 887.99 231.28C890.34 227.41 893.65 224.39 897.92 222.22C902.19 220.04 907.12 218.95 912.71 218.95C915.82 218.95 919.6 219.53 924.04 220.68C926.79 221.48 928.93 221.88 930.44 221.88C931.68 221.88 932.71 221.66 933.51 221.21C934.31 220.77 935.2 220.01 936.18 218.94H937.51V248.66H935.91C933.42 240.31 930.29 233.84 926.51 229.27C922.73 224.69 918.13 222.41 912.71 222.41C907.91 222.41 904.05 223.77 901.11 226.48C898.18 229.19 896.71 232.9 896.71 237.61C896.71 241.88 897.62 245.39 899.44 248.14C901.26 250.9 903.53 253.05 906.24 254.6C908.95 256.16 912.57 257.82 917.1 259.6C921.81 261.47 925.78 263.4 929.03 265.4C932.27 267.4 934.94 270.15 937.03 273.66C939.12 277.17 940.16 281.55 940.16 286.79C940.16 294.79 937.78 301.19 933.03 305.98C928.28 310.78 921.45 313.18 912.57 313.18C910.35 313.18 908.13 313 905.91 312.65C903.69 312.29 901.64 311.94 899.78 311.58C896.4 310.78 893.83 310.38 892.05 310.38C889.47 310.38 887.43 311.31 885.92 313.18H884.59V283.46H886.46C888.15 291.1 891.32 297.37 895.99 302.25C900.66 307.14 906.19 309.58 912.58 309.58C918.18 309.58 922.13 308.09 924.44 305.11C926.75 302.13 927.91 298.34 927.91 293.71C927.91 289.62 927.09 286.22 925.44 283.51L925.45 283.52Z" fill="white"/>
<path d="M965.51 228.54H966.84V245.73H984.03V247.33L980.03 250.4H966.83V295.32C966.83 298.87 967.36 301.38 968.43 302.85C969.5 304.32 971.32 305.05 973.89 305.05C975.76 305.05 977.4 304.56 978.82 303.58C980.24 302.6 981.4 301 982.29 298.78L983.36 299.05C982.83 303.85 981.18 307.36 978.43 309.58C975.67 311.8 972.39 312.91 968.57 312.91C963.68 312.91 959.99 311.55 957.51 308.84C955.02 306.13 953.78 301.8 953.78 295.84V250.39H948.05V249.06C955.25 243.37 961.07 236.53 965.51 228.53V228.54Z" fill="white"/>
<path d="M992.7 307.72C989.94 304.25 988.57 299.95 988.57 294.79C988.57 289.9 989.52 285.91 991.44 282.79C993.35 279.68 996.64 277.08 1001.3 274.99C1005.97 272.9 1012.56 271.06 1021.09 269.46V271.59C1016.03 272.75 1012.18 274.21 1009.56 275.99C1006.94 277.77 1005.16 279.94 1004.23 282.52C1003.3 285.1 1002.83 288.38 1002.83 292.38C1002.83 297.09 1003.7 300.67 1005.43 303.11C1007.16 305.55 1009.23 306.78 1011.63 306.78C1014.38 306.78 1016.52 305.85 1018.03 303.98C1019.54 302.11 1020.3 298.96 1020.3 294.52L1022.17 300.52C1020.57 305.05 1018.15 308.25 1014.91 310.12C1011.66 311.99 1008.18 312.92 1004.45 312.92C999.39 312.92 995.47 311.19 992.72 307.72H992.7ZM1023.55 309.78C1022.35 307.69 1021.57 305.23 1021.22 302.38C1021.13 301.94 1021.04 301.49 1020.95 301.05L1020.28 300.78V267.72C1020.28 261.94 1019.35 257.81 1017.48 255.32C1015.61 252.83 1012.33 251.59 1007.62 251.59C1004.42 251.59 1001.56 252.19 999.02 253.39C996.49 254.59 994.07 256.43 991.76 258.92L990.43 257.99C990.87 255.59 992.16 253.24 994.3 250.93C996.43 248.62 999.1 246.73 1002.3 245.26C1005.5 243.79 1008.83 243.06 1012.3 243.06C1019.14 243.06 1024.36 244.77 1027.96 248.19C1031.56 251.61 1033.36 257.01 1033.36 264.38V297.84C1033.36 299.8 1033.67 301.35 1034.29 302.51C1034.91 303.67 1036.2 304.24 1038.16 304.24C1039.05 304.24 1039.67 304.2 1040.03 304.11L1040.43 304.64C1039.9 307.48 1038.76 309.57 1037.03 310.9C1035.3 312.23 1033.1 312.9 1030.43 312.9C1027.05 312.9 1024.76 311.85 1023.57 309.77L1023.55 309.78Z" fill="white"/>
<path d="M1062.54 228.54H1063.87V245.73H1081.06V247.33L1077.06 250.4H1063.86V295.32C1063.86 298.87 1064.39 301.38 1065.46 302.85C1066.53 304.32 1068.35 305.05 1070.92 305.05C1072.79 305.05 1074.43 304.56 1075.85 303.58C1077.27 302.6 1078.43 301 1079.32 298.78L1080.39 299.05C1079.86 303.85 1078.21 307.36 1075.46 309.58C1072.7 311.8 1069.42 312.91 1065.6 312.91C1060.71 312.91 1057.02 311.55 1054.54 308.84C1052.05 306.13 1050.81 301.8 1050.81 295.84V250.39H1045.08V249.06C1052.28 243.37 1058.1 236.53 1062.54 228.53V228.54Z" fill="white"/>
<path d="M1096.33 308.45C1092.46 305.47 1089.62 301.41 1087.8 296.25C1085.98 291.1 1085.07 285.14 1085.07 278.39C1085.07 271.99 1086.02 266.11 1087.94 260.73C1089.85 255.35 1092.74 251.07 1096.6 247.87C1100.47 244.67 1105.28 243.07 1111.06 243.07C1118.97 243.07 1124.63 245.72 1128.05 251C1131.47 256.29 1133.18 263.82 1133.18 273.59H1094.13L1094.26 270.92H1119.05C1118.87 264.34 1118.49 259.24 1117.92 255.59C1117.34 251.95 1116.43 249.35 1115.19 247.79C1113.94 246.24 1112.26 245.46 1110.13 245.46C1108 245.46 1106.31 246.31 1104.8 247.99C1103.29 249.68 1102.07 252.5 1101.13 256.45C1100.2 260.41 1099.68 265.63 1099.6 272.11L1099.33 272.91V275.44C1099.33 283.79 1100.48 290.21 1102.8 294.7C1105.11 299.19 1109.33 301.43 1115.46 301.43C1119.01 301.43 1122.15 300.65 1124.86 299.1C1127.57 297.55 1129.86 294.95 1131.72 291.3L1132.92 291.57C1131.94 298.68 1129.57 304.01 1125.79 307.57C1122.01 311.12 1117.1 312.9 1111.06 312.9C1105.02 312.9 1100.2 311.41 1096.33 308.43V308.45Z" fill="white"/>
<path d="M554.78 428.79C549.76 424.12 547.25 417.13 547.25 407.8V367.01C547.25 360.35 547 355.41 546.52 352.21C546.03 349.01 545.21 346.9 544.05 345.88C542.89 344.86 541.2 344.35 538.99 344.35V343.02H572.18V344.35C569.78 344.35 567.8 344.88 566.25 345.95C564.69 347.02 563.45 349.2 562.52 352.48C561.59 355.77 561.12 360.61 561.12 367.01V403.8C561.12 411.62 562.72 417.2 565.92 420.53C569.12 423.86 573.96 425.53 580.45 425.53C586.94 425.53 591.69 423.93 594.98 420.73C598.27 417.53 599.91 412.2 599.91 404.74V371.68C599.91 364.48 599.6 359.11 598.98 355.55C598.36 352 597.22 349.42 595.58 347.82C593.93 346.22 591.38 345.07 587.92 344.35V343.02H614.31V344.35C612.09 344.8 610.24 345.86 608.78 347.55C607.31 349.24 606.18 351.99 605.38 355.81C604.58 359.63 604.18 364.87 604.18 371.54V406.06C604.18 415.21 601.93 422.46 597.45 427.79C592.96 433.12 585.7 435.79 575.66 435.79C566.77 435.79 559.82 433.46 554.8 428.79H554.78Z" fill="white"/>
<path d="M616.42 433.65V432.32C618.2 431.97 619.6 431.21 620.62 430.05C621.64 428.9 622.4 427.18 622.89 424.92C623.38 422.65 623.62 419.65 623.62 415.92V387.93C623.62 383.75 623.42 380.56 623.02 378.33C622.62 376.11 621.91 374.49 620.89 373.46C619.87 372.44 618.38 371.79 616.43 371.53V370.2C619.18 370.2 622.52 369.71 626.43 368.73C630.34 367.75 633.4 366.73 635.63 365.66H636.43L636.16 373.66L636.69 375.26V415.91C636.69 420 636.82 423.11 637.09 425.24C637.36 427.37 637.89 429 638.69 430.11C639.49 431.22 640.73 431.96 642.42 432.31V433.64H616.43L616.42 433.65ZM649.88 433.65V432.32C651.57 431.97 652.81 431.23 653.61 430.12C654.41 429.01 654.94 427.39 655.21 425.25C655.48 423.12 655.61 420.01 655.61 415.92V384.73C655.61 380.29 654.92 377.31 653.54 375.8C652.16 374.29 649.7 373.53 646.14 373.53C642.41 373.53 638.72 374.73 635.08 377.13L634.55 374.46C637.93 371.79 641.55 369.66 645.41 368.06C649.28 366.46 652.81 365.66 656.01 365.66C660.28 365.66 663.45 366.91 665.54 369.39C667.63 371.88 668.67 376.01 668.67 381.79V415.91C668.67 419.64 668.91 422.64 669.4 424.91C669.89 427.18 670.64 428.89 671.67 430.04C672.69 431.2 674.09 431.95 675.87 432.31V433.64H649.88V433.65Z" fill="white"/>
<path d="M701.6 425.06C702.04 427.68 702.75 429.46 703.73 430.39C704.71 431.32 706.17 431.97 708.13 432.32V433.65H680.67V432.32C682.62 431.97 684.09 431.32 685.07 430.39C686.05 429.46 686.76 427.68 687.2 425.06C687.64 422.44 687.87 418.42 687.87 413V387.94C687.87 383.67 687.67 380.46 687.27 378.28C686.87 376.1 686.18 374.5 685.2 373.48C684.22 372.46 682.71 371.81 680.67 371.55V370.22C683.42 370.22 686.8 369.73 690.8 368.75C694.8 367.77 697.95 366.75 700.26 365.68H700.93V413C700.93 418.42 701.15 422.44 701.6 425.06ZM687.53 359.54C685.8 357.85 684.93 355.72 684.93 353.14C684.93 350.56 685.8 348.54 687.53 346.81C689.26 345.08 691.42 344.21 693.99 344.21C696.56 344.21 698.61 345.08 700.39 346.81C702.17 348.54 703.06 350.65 703.06 353.14C703.06 355.63 702.19 357.74 700.46 359.47C698.73 361.2 696.57 362.07 694 362.07C691.43 362.07 689.27 361.23 687.54 359.54H687.53Z" fill="white"/>
<path d="M737.05 436.19L723.99 399.14C721.23 391.23 718.95 384.86 717.13 380.01C715.31 375.17 714 372.15 713.2 370.95C712.4 369.75 711.47 369.06 710.4 368.88V367.55H735.46V368.88C734.04 368.88 733.01 369.15 732.39 369.68C731.77 370.21 731.46 371.15 731.46 372.48C731.46 373.73 731.77 375.79 732.39 378.68C733.01 381.57 734.39 387.06 736.52 395.14L743.05 419.8L738.52 436.2H737.05V436.19ZM738.92 427.12L741.59 419.26C744.34 412.51 746.68 405.6 748.59 398.53C750.5 391.47 751.46 385.4 751.46 380.34C751.46 377.41 751.15 374.99 750.53 373.08C749.91 371.17 748.88 369.77 747.46 368.88V367.55H766.65V368.88C765.76 369.06 764.85 369.84 763.92 371.21C762.99 372.59 761.67 375.34 759.99 379.47C758.3 383.6 755.77 390.16 752.39 399.13L738.53 436.18L738.93 427.12H738.92Z" fill="white"/>
<path d="M780.44 431.05C776.57 428.07 773.73 424.01 771.91 418.85C770.09 413.7 769.18 407.74 769.18 400.99C769.18 394.59 770.13 388.71 772.05 383.33C773.96 377.95 776.85 373.67 780.71 370.47C784.58 367.27 789.39 365.67 795.17 365.67C803.08 365.67 808.74 368.32 812.16 373.6C815.58 378.89 817.29 386.42 817.29 396.19H778.24L778.37 393.52H803.16C802.98 386.94 802.6 381.84 802.03 378.19C801.45 374.55 800.54 371.95 799.3 370.39C798.05 368.84 796.37 368.06 794.24 368.06C792.11 368.06 790.42 368.91 788.91 370.59C787.4 372.28 786.18 375.1 785.24 379.05C784.31 383.01 783.79 388.23 783.71 394.71L783.44 395.51V398.04C783.44 406.39 784.59 412.81 786.91 417.3C789.22 421.79 793.44 424.03 799.57 424.03C803.12 424.03 806.26 423.25 808.97 421.7C811.68 420.15 813.97 417.55 815.83 413.9L817.03 414.17C816.05 421.28 813.68 426.61 809.9 430.17C806.12 433.72 801.21 435.5 795.17 435.5C789.13 435.5 784.31 434.01 780.44 431.03V431.05Z" fill="white"/>
<path d="M824.49 433.65V432.32C826.27 431.97 827.69 431.21 828.76 430.05C829.83 428.9 830.58 427.21 831.03 424.98C831.47 422.76 831.7 419.74 831.7 415.92V387.93C831.7 383.66 831.5 380.45 831.1 378.27C830.7 376.09 830.01 374.49 829.03 373.47C828.05 372.45 826.54 371.8 824.5 371.54V370.21C827.25 370.21 830.59 369.72 834.5 368.74C838.41 367.76 841.52 366.74 843.83 365.67H844.5L844.23 377.67L844.76 379.27V415.92C844.76 419.92 844.98 422.98 845.43 425.12C845.87 427.25 846.7 428.9 847.9 430.05C849.1 431.21 850.9 431.96 853.3 432.32V433.65H824.51H824.49ZM847.28 371.61C848.88 369.88 850.92 368.46 853.41 367.34C855.9 366.23 859.01 365.67 862.74 365.67L861.01 378.47C859.32 377.58 857.52 376.87 855.61 376.34C853.7 375.81 852.21 375.54 851.14 375.54C849.27 375.54 847.87 375.92 846.94 376.67C846.01 377.43 845.41 378.58 845.14 380.14C844.87 381.7 844.74 383.98 844.74 387L842.07 378.6C843.94 375.67 845.67 373.33 847.27 371.6L847.28 371.61Z" fill="white"/>
<path d="M873.41 431.52C869.59 428.94 867.68 425.43 867.68 420.99C867.68 419.3 867.99 417.52 868.61 415.66L879.14 412.06C878.52 414.46 878.21 416.68 878.21 418.72C878.21 423.07 879.23 426.5 881.28 428.98C883.32 431.47 886.26 432.71 890.08 432.71C893.28 432.71 895.94 431.82 898.08 430.04C900.21 428.26 901.28 425.33 901.28 421.24C901.28 417.6 900.32 414.71 898.41 412.58C896.5 410.45 893.01 408.45 887.95 406.58C880.84 404 875.73 401.03 872.62 397.65C869.51 394.27 867.95 390.14 867.95 385.25C867.95 381.61 868.82 378.3 870.55 375.32C872.28 372.34 874.84 369.99 878.21 368.26C881.59 366.53 885.72 365.66 890.61 365.66C896.3 365.66 900.98 366.75 904.67 368.93C908.36 371.11 910.2 374.15 910.2 378.06C910.2 379.75 909.89 381.39 909.27 382.99L899.54 386.19C899.98 384.5 900.21 382.95 900.21 381.52C900.21 377.25 899.28 373.99 897.41 371.72C895.54 369.45 892.7 368.32 888.88 368.32C885.77 368.32 883.42 369.3 881.82 371.25C880.22 373.21 879.42 375.6 879.42 378.45C879.42 381.92 880.55 384.83 882.82 387.18C885.09 389.54 888.97 391.78 894.48 393.91C899.1 395.69 902.7 397.58 905.28 399.58C907.86 401.58 909.68 403.76 910.74 406.11C911.81 408.47 912.34 411.2 912.34 414.31C912.34 420.62 910.38 425.71 906.48 429.57C902.57 433.44 896.62 435.37 888.62 435.37C882.31 435.37 877.24 434.08 873.42 431.5L873.41 431.52Z" fill="white"/>
<path d="M939.92 425.06C940.36 427.68 941.07 429.46 942.05 430.39C943.03 431.32 944.49 431.97 946.45 432.32V433.65H918.99V432.32C920.94 431.97 922.41 431.32 923.39 430.39C924.37 429.46 925.08 427.68 925.52 425.06C925.96 422.44 926.19 418.42 926.19 413V387.94C926.19 383.67 925.99 380.46 925.59 378.28C925.19 376.1 924.5 374.5 923.52 373.48C922.54 372.46 921.03 371.81 918.99 371.55V370.22C921.74 370.22 925.12 369.73 929.12 368.75C933.12 367.77 936.27 366.75 938.58 365.68H939.25V413C939.25 418.42 939.47 422.44 939.92 425.06ZM925.86 359.54C924.13 357.85 923.26 355.72 923.26 353.14C923.26 350.56 924.13 348.54 925.86 346.81C927.59 345.08 929.75 344.21 932.32 344.21C934.89 344.21 936.94 345.08 938.72 346.81C940.5 348.54 941.39 350.65 941.39 353.14C941.39 355.63 940.52 357.74 938.79 359.47C937.06 361.2 934.9 362.07 932.33 362.07C929.76 362.07 927.6 361.23 925.87 359.54H925.86Z" fill="white"/>
<path d="M968.71 351.15H970.04V368.34H987.23V369.94L983.23 373.01H970.03V417.93C970.03 421.48 970.56 423.99 971.63 425.46C972.7 426.93 974.52 427.66 977.09 427.66C978.96 427.66 980.6 427.17 982.02 426.19C983.44 425.21 984.6 423.61 985.49 421.39L986.56 421.66C986.03 426.46 984.38 429.97 981.63 432.19C978.87 434.41 975.59 435.52 971.77 435.52C966.88 435.52 963.19 434.16 960.71 431.45C958.22 428.74 956.98 424.41 956.98 418.45V373H951.25V371.67C958.45 365.98 964.27 359.14 968.71 351.14V351.15Z" fill="white"/>
<path d="M1014.83 437.52L1002.03 399.13C998.92 389.89 996.54 383.16 994.9 378.94C993.25 374.72 991.97 372.01 991.03 370.81C990.09 369.61 989.01 368.97 987.76 368.88V367.55H1014.42V368.88C1011.22 368.88 1009.62 370.21 1009.62 372.88C1009.62 375.28 1011.22 382.7 1014.42 395.14L1021.08 421.13L1017.21 434.06L1014.81 437.53L1014.83 437.52ZM1024.69 406.33C1026.82 399.84 1028.29 394.56 1029.09 390.47C1029.89 386.38 1030.29 383.01 1030.29 380.34C1030.29 377.5 1029.98 375.1 1029.36 373.14C1028.74 371.19 1027.63 369.76 1026.03 368.87V367.54H1046.29V368.87C1045.22 369.05 1044.25 369.74 1043.36 370.94C1042.47 372.14 1041.14 374.85 1039.36 379.07C1037.58 383.29 1035.05 389.98 1031.76 399.13L1017.63 438.18C1015.32 444.49 1013.5 449.02 1012.17 451.78C1010.84 454.53 1009.35 456.51 1007.7 457.71C1006.05 458.91 1003.81 459.51 1000.97 459.51C999.55 459.51 998.04 459.15 996.44 458.44C994.84 457.73 993.73 456.93 993.11 456.04L992.84 442.04C994.88 443.82 996.75 445.08 998.44 445.84C1000.13 446.59 1001.99 446.97 1004.04 446.97C1006.09 446.97 1007.55 446.66 1008.71 446.04C1009.86 445.42 1011 444.11 1012.11 442.11C1013.22 440.11 1014.49 436.98 1015.91 432.71L1024.44 407.12L1024.71 406.32L1024.69 406.33Z" fill="white"/>
</g>
<defs>
<clipPath id="clip0_49_34">
<rect width="1133.18" height="495.04" fill="white"/>
</clipPath>
</defs>
</svg>
