<svg width="884" height="204" viewBox="0 0 884 204" fill="none" xmlns="http://www.w3.org/2000/svg">
<g clip-path="url(#clip0_49_134)">
<path fill-rule="evenodd" clip-rule="evenodd" d="M177.67 203.07H10.06C4.5 203.07 0 196.98 0 191.43V66.18C0 60.63 2.92 58.22 8.48 58.22H179.78C185.33 58.22 187.73 60.62 187.73 66.18V191.43C187.73 196.98 183.22 203.07 177.67 203.07ZM100.87 0.719971L149.32 9.09997L184.18 53.06L100.86 39.1V0.719971H100.87ZM38.47 9.09997L86.4 0.719971V39.1L3.61 53.06L38.47 9.09997Z" fill="#37A1DB"/>
<path d="M280.03 171.45C280.22 162.81 280.31 150.67 280.31 135.03C280.31 119.39 280.25 106.78 280.12 97.57C279.99 88.36 279.8 80.23 279.55 73.16H296.58V76.38L296.77 79.98C300.05 75.31 305.22 72.98 312.28 72.98C321.24 72.98 327.42 76.61 330.82 83.86C334.23 91.11 335.93 101.24 335.93 114.23C335.93 128.36 334.04 139.24 330.25 146.87C326.47 154.5 319.84 158.32 310.38 158.32C307.23 158.32 304.51 157.88 302.24 157C299.97 156.12 298.14 154.67 296.75 152.65C296.75 165.14 296.81 176.05 296.94 185.38L297.32 193.89H279.53C279.65 187.58 279.81 180.11 280 171.47L280.03 171.45ZM299.61 139.28C301.63 142.24 304.34 143.73 307.75 143.73C311.66 143.73 314.53 141.59 316.36 137.3C318.19 133.01 319.1 125.45 319.1 114.6C319.1 104.89 318.25 97.95 316.55 93.79C314.85 89.63 311.98 87.55 307.94 87.55C304.53 87.55 301.79 89.35 299.71 92.94C297.63 96.54 296.59 102.75 296.59 111.58V122.55C296.59 130.75 297.6 136.33 299.62 139.3L299.61 139.28Z" fill="#37A1DB"/>
<path d="M349.56 117.05C349.56 97.7499 349.37 83.4999 348.99 74.2899H366.4C366.15 76.1799 366.02 80.6599 366.02 87.7199C367.53 84.4399 370.15 81.5999 373.87 79.2099C377.59 76.8099 381.53 75.6099 385.7 75.6099C386.84 75.6099 388.03 75.6699 389.3 75.7999H389.68V91.4999C387.53 91.3799 385.2 91.5599 382.68 92.0699C378.14 93.0799 374.67 94.9099 372.27 97.5599C369.87 100.21 368.26 103.52 367.45 107.49C366.63 111.46 366.16 116.86 366.03 123.67V138.81C366.03 144.99 366.22 150.92 366.6 156.6H349C349.38 148.15 349.57 134.97 349.57 117.06L349.56 117.05Z" fill="#37A1DB"/>
<path d="M415.59 60.38C413.57 62.97 410.98 64.26 407.83 64.26C404.68 64.26 402.28 62.97 400.64 60.38C399 57.8 398.18 54.99 398.18 51.96C398.18 48.55 399.13 45.69 401.02 43.35C402.91 41.02 405.31 39.85 408.21 39.85C411.11 39.85 413.73 40.99 415.68 43.26C417.63 45.53 418.61 48.24 418.61 51.4C418.61 54.81 417.6 57.8 415.58 60.39L415.59 60.38ZM400.08 118.18C400.08 98.25 399.89 83.62 399.51 74.28H416.92C416.67 83.36 416.54 97.43 416.54 116.47C416.54 134.51 416.66 147.88 416.92 156.58H399.51C399.89 148.13 400.08 135.33 400.08 118.17V118.18Z" fill="#37A1DB"/>
<path d="M502.63 139.94L502.82 130.86C502.82 117.62 502.73 108.88 502.54 104.65C502.35 100.43 501.88 97.18 501.12 94.91C500.49 93.02 499.57 91.69 498.38 90.94C497.18 90.18 495.89 89.8 494.5 89.8C490.46 89.8 487.72 92.29 486.27 97.27C484.82 102.25 484.09 110.42 484.09 121.77V128.39C484.09 137.98 484.28 147.38 484.66 156.58H467.06C467.44 147.88 467.63 139.87 467.63 132.55C467.63 119.43 467.54 110.76 467.35 106.53C467.16 102.31 466.69 99.12 465.93 96.98C465.3 95.09 464.42 93.8 463.28 93.1C462.15 92.41 460.76 92.06 459.12 92.06C455.34 92.06 452.69 94.36 451.17 98.97C449.66 103.58 448.9 111.05 448.9 121.39V130.28C448.9 141.51 449.02 150.27 449.28 156.58H431.87C432.25 148.13 432.44 134.95 432.44 117.04C432.44 97.87 432.25 83.62 431.87 74.28H449.47C449.22 79.07 449.09 82.67 449.09 85.06C450.86 82.41 453.16 80.33 456 78.82C458.84 77.31 461.77 76.55 464.8 76.55C466.94 76.55 469.28 76.93 471.8 77.69C474.32 78.45 476.59 79.9 478.61 82.04C479.37 82.92 480.12 84.06 480.88 85.45C483.15 81.41 485.89 78.58 489.11 76.94C492.33 75.3 495.89 74.48 499.8 74.48C502.19 74.48 504.59 74.83 506.99 75.52C509.38 76.21 511.59 77.57 513.61 79.59C515.5 81.48 516.95 84.16 517.96 87.63C518.97 91.1 519.47 95.36 519.47 100.4L519.28 118.75L519.47 131.05C519.47 140.89 519.59 149.4 519.85 156.59H502.25C502.37 151.29 502.5 145.74 502.63 139.94Z" fill="#37A1DB"/>
<path d="M565.25 121.78H553.9L548.98 121.97C549.36 130.8 550.49 136.82 552.39 140.04C554.28 143.26 557.18 144.86 561.09 144.86C564.12 144.86 566.39 143.76 567.9 141.55C569.41 139.34 570.17 135.53 570.17 130.1H585.88C585.63 135.78 584.77 140.7 583.33 144.86C581.88 149.02 579.32 152.3 575.67 154.7C572.01 157.09 567.09 158.29 560.91 158.29C550.31 158.29 542.94 154.7 538.77 147.51C534.61 140.32 532.53 129.47 532.53 114.97C532.53 100.47 534.58 90.09 538.68 83.09C542.78 76.09 550.13 72.59 560.72 72.59C568.03 72.59 573.52 74.26 577.18 77.6C580.84 80.94 583.2 85.48 584.28 91.22C585.35 96.96 585.89 104.56 585.89 114.02V121.97C580.97 121.85 574.09 121.78 565.27 121.78H565.25ZM561.85 110.05H569.99C569.86 103.74 569.52 98.92 568.95 95.58C568.38 92.24 567.44 89.81 566.11 88.3C564.78 86.79 562.86 86.03 560.34 86.03C556.81 86.03 554.1 87.7 552.2 91.04C550.31 94.38 549.24 100.66 548.98 109.87C554.53 110 558.82 110.06 561.85 110.06V110.05Z" fill="#37A1DB"/>
<path d="M621.26 156.59L595.53 156.78V141.83C598.68 136.91 601.96 131.74 605.37 126.32L610.86 117.43C614.14 112.26 617.36 107.02 620.51 101.73C623.79 96.4299 626.63 91.8299 629.02 87.9199H619.56C610.35 87.9199 603.6 88.0499 599.31 88.2999V74.2999C603.6 74.4299 611.54 74.4899 623.15 74.4899C636.14 74.4899 643.96 74.4299 646.61 74.2999V90.5699C644.84 93.5999 642.7 97.0699 640.18 100.98C637.15 106.03 634.13 111.07 631.1 116.12L622.96 128.61C619.43 134.16 616.59 138.95 614.45 142.99H625.05C629.34 142.99 635.9 142.87 644.73 142.61V156.8C640.31 156.67 632.49 156.61 621.27 156.61L621.26 156.59Z" fill="#37A1DB"/>
<path d="M707.25 147.7C703.02 154.77 695.55 158.29 684.83 158.29C674.11 158.29 666.48 154.76 662.31 147.7C658.15 140.64 656.07 129.85 656.07 115.35C656.07 100.85 658.15 90.25 662.31 83.18C666.47 76.12 673.98 72.58 684.83 72.58C695.68 72.58 703.02 76.11 707.25 83.18C711.47 90.25 713.59 100.97 713.59 115.35C713.59 129.73 711.48 140.64 707.25 147.7ZM693.72 137.29C695.74 133 696.75 125.69 696.75 115.34C696.75 104.99 695.74 97.87 693.72 93.58C691.7 89.29 688.74 87.15 684.83 87.15C680.67 87.15 677.61 89.26 675.65 93.49C673.69 97.72 672.72 105 672.72 115.34C672.72 125.68 673.7 133.16 675.65 137.38C677.6 141.61 680.66 143.72 684.83 143.72C688.74 143.72 691.7 141.58 693.72 137.29Z" fill="#37A1DB"/>
<path d="M775.93 147.7C771.7 154.77 764.23 158.29 753.51 158.29C742.79 158.29 735.16 154.76 730.99 147.7C726.83 140.64 724.75 129.85 724.75 115.35C724.75 100.85 726.83 90.25 730.99 83.18C735.15 76.12 742.66 72.58 753.51 72.58C764.36 72.58 771.7 76.11 775.93 83.18C780.15 90.25 782.27 100.97 782.27 115.35C782.27 129.73 780.16 140.64 775.93 147.7ZM762.4 137.29C764.42 133 765.43 125.69 765.43 115.34C765.43 104.99 764.42 97.87 762.4 93.58C760.38 89.29 757.42 87.15 753.51 87.15C749.35 87.15 746.29 89.26 744.33 93.49C742.37 97.72 741.4 105 741.4 115.34C741.4 125.68 742.38 133.16 744.33 137.38C746.28 141.61 749.34 143.72 753.51 143.72C757.42 143.72 760.38 141.58 762.4 137.29Z" fill="#37A1DB"/>
<path d="M865.9 139.94L866.09 130.86C866.09 117.62 866 108.88 865.81 104.65C865.62 100.43 865.15 97.18 864.39 94.91C863.76 93.02 862.84 91.69 861.65 90.94C860.45 90.18 859.16 89.8 857.77 89.8C853.73 89.8 850.99 92.29 849.54 97.27C848.09 102.25 847.36 110.42 847.36 121.77V128.39C847.36 137.98 847.55 147.38 847.93 156.58H830.33C830.71 147.88 830.9 139.87 830.9 132.55C830.9 119.43 830.81 110.76 830.62 106.53C830.43 102.31 829.96 99.12 829.2 96.98C828.57 95.09 827.69 93.8 826.55 93.1C825.42 92.41 824.03 92.06 822.39 92.06C818.61 92.06 815.96 94.36 814.44 98.97C812.93 103.58 812.17 111.05 812.17 121.39V130.28C812.17 141.51 812.29 150.27 812.55 156.58H795.14C795.52 148.13 795.71 134.95 795.71 117.04C795.71 97.87 795.52 83.62 795.14 74.28H812.74C812.49 79.07 812.36 82.67 812.36 85.06C814.13 82.41 816.43 80.33 819.27 78.82C822.11 77.31 825.04 76.55 828.07 76.55C830.21 76.55 832.55 76.93 835.07 77.69C837.59 78.45 839.86 79.9 841.88 82.04C842.64 82.92 843.39 84.06 844.15 85.45C846.42 81.41 849.16 78.58 852.38 76.94C855.6 75.3 859.16 74.48 863.07 74.48C865.46 74.48 867.86 74.83 870.26 75.52C872.65 76.21 874.86 77.57 876.88 79.59C878.77 81.48 880.22 84.16 881.23 87.63C882.24 91.1 882.74 95.36 882.74 100.4L882.55 118.75L882.74 131.05C882.74 140.89 882.86 149.4 883.12 156.59H865.52C865.64 151.29 865.77 145.74 865.9 139.94Z" fill="#37A1DB"/>
</g>
<defs>
<clipPath id="clip0_49_134">
<rect width="883.11" height="202.35" fill="white" transform="translate(0 0.719971)"/>
</clipPath>
</defs>
</svg>
